<svg width="427" height="341" viewBox="0 0 427 341" fill="none" xmlns="http://www.w3.org/2000/svg">
<rect x="5.5" y="47.5001" width="300" height="281" stroke="black"/>
<mask id="mask0_294_4" style="mask-type:alpha" maskUnits="userSpaceOnUse" x="-45" y="7" width="446" height="392">
<path d="M88.0034 86.3419C79.2765 100.077 74.2284 114.802 72.8593 130.515C72.7605 131.853 72.2359 132.278 71.2854 131.789C70.335 131.301 69.6355 130.651 69.1871 129.841C66.9256 126.864 65.5377 123.592 65.0236 120.027C64.8604 118.998 64.7672 118.438 64.7441 118.347C64.6978 118.164 64.6801 117.998 64.6911 117.85C64.6338 117.816 64.5187 117.553 64.3456 117.062C64.2299 116.605 64.0971 116.177 63.9472 115.777C63.8546 115.411 63.8424 115.171 63.9107 115.057C63.784 114.748 63.7206 114.594 63.7206 114.594C63.6633 114.56 63.5598 114.343 63.4099 113.944C63.3636 113.761 63.3173 113.578 63.271 113.395C63.271 113.395 63.2424 113.378 63.1851 113.344C63.2192 113.287 63.2076 113.241 63.1504 113.207C63.1735 113.298 63.1851 113.344 63.1851 113.344C63.0121 112.853 62.8336 112.436 62.6496 112.094C62.6264 112.002 62.6149 111.957 62.6149 111.957C62.5917 111.865 62.5399 111.757 62.4595 111.631C62.3791 111.506 62.2987 111.38 62.2182 111.255C62.1951 111.163 62.1433 111.055 62.0629 110.929C61.9825 110.804 61.902 110.678 61.8216 110.553C61.7412 110.427 61.5919 110.222 61.3738 109.937C61.5115 110.096 61.6608 110.302 61.8216 110.553C61.7412 110.427 61.609 110.193 61.425 109.851C61.2642 109.6 61.1435 109.412 61.0631 109.286C60.7646 108.875 60.4545 108.419 60.1328 107.917C60.0524 107.791 59.9031 107.586 59.685 107.301L59.8056 107.489C59.6216 107.147 59.0191 106.4 57.9979 105.248C57.3667 104.484 56.6326 103.697 55.7955 102.888C55.8296 102.831 55.818 102.785 55.7607 102.751C55.5085 102.523 55.3251 102.375 55.2106 102.307C54.8779 101.954 54.5282 101.629 54.1614 101.333C52.5907 99.9312 50.9402 98.5986 49.2099 97.3349C46.0246 95.1266 42.4061 93.3199 38.3543 91.9147C37.6561 91.6539 36.7386 90.7192 35.6017 89.1106C34.6025 87.6617 33.6649 85.7838 32.7888 83.477C32.3965 82.312 32.0834 80.8838 31.8495 79.1924C31.5925 77.4096 32.019 76.6937 33.1291 77.0447C40.2943 79.6065 46.7209 83.6683 52.409 89.2302C58.1312 94.7348 62.7701 101.146 66.3256 108.464C66.8765 105.455 67.5591 102.486 68.3732 99.5566C69.7419 94.7847 71.4652 90.0688 73.5431 85.409C68.9515 83.2166 65.012 79.2786 61.7245 73.595C57.7121 66.393 55.8723 59.3214 56.2053 52.3804C56.3419 48.5041 57.3194 44.7795 59.1377 41.2067C61.0132 37.668 63.3762 34.6138 66.2266 32.0439C69.077 29.474 72.3404 27.3831 76.017 25.771C76.5763 25.4835 77.4068 25.9783 78.5083 27.2554C79.4259 28.1901 80.4256 29.8334 81.5076 32.1853C82.4629 34.2289 83.0289 36.0794 83.2055 37.7366C83.4162 39.3366 83.2419 40.2804 82.6826 40.568C76.8369 43.2157 72.3201 46.694 69.1321 51.0027C66.1147 55.0252 64.4469 59.192 64.1286 63.5034C64.0506 64.1553 64.0183 64.7957 64.0317 65.4245C64.089 65.4586 64.1121 65.55 64.1011 65.6986C64.0902 65.8473 64.0792 65.996 64.0682 66.1446C64.0914 66.236 64.0859 66.3104 64.0517 66.3676C64.0749 66.459 64.098 66.5504 64.1212 66.6418L64.1047 66.8648C64.1742 67.139 64.2321 67.3675 64.2783 67.5503C64.2783 67.5503 64.2899 67.596 64.3131 67.6874L64.2619 67.7733C64.5141 68.0012 64.6689 68.1322 64.7262 68.1663C64.4508 67.847 64.4794 67.8641 64.8121 68.2175C65.007 68.4112 65.1331 68.5252 65.1904 68.5593C65.5803 68.9468 66.0044 69.2771 66.4626 69.5501C66.4626 69.5501 66.5485 69.6013 66.7203 69.7036L67.0987 70.0455C68.7023 71.0009 70.5795 71.6925 72.7302 72.1203C75.6134 72.7517 78.3912 72.583 81.0636 71.6144C87.8345 61.2921 96.1194 52.5314 105.918 45.3325C106.203 45.1143 106.518 45.1077 106.862 45.3124C107.239 45.4599 107.606 45.756 107.962 46.2008C108.375 46.6797 108.742 47.1702 109.064 47.6723C109.443 48.2085 109.788 48.8019 110.099 49.4527C110.501 50.0803 110.765 50.5482 110.892 50.8565C111.076 51.1989 111.248 51.4957 111.409 51.7467C112.364 53.7903 112.93 55.6408 113.107 57.2981C113.294 58.8067 113.12 59.7505 112.584 60.1294C107.588 63.8264 102.981 67.9109 98.7647 72.3829C96.0983 75.2952 93.5982 78.3842 91.2645 81.6499C91.2767 81.8899 91.2773 82.0843 91.2663 82.233C91.5112 83.7757 91.3369 84.7195 90.7434 85.0643C89.8989 85.57 88.9855 85.9959 88.0034 86.3419ZM111.002 130.193C105.393 128.016 101.128 122.215 98.2062 112.791C96.7161 107.868 96.2716 102.753 96.8726 97.4464C97.5308 92.1736 99.1506 87.2409 101.732 82.6481C105.302 76.3945 111.205 69.9393 119.439 63.2826C119.382 63.2484 119.222 63.1918 118.958 63.1125C118.787 63.0102 118.672 62.9419 118.615 62.9078C116.565 61.9195 114.681 59.0898 112.963 54.4189C112.814 54.0192 112.641 53.5281 112.444 52.9456C112.305 52.3972 112.137 51.6375 111.94 50.6662C111.8 49.7291 111.849 49.0601 112.088 48.6592C112.327 48.2583 112.715 48.0628 113.253 48.0725C113.458 48.1176 113.693 48.1798 113.956 48.259C114.254 48.281 114.46 48.3261 114.574 48.3943C115.077 48.4613 115.576 48.7971 116.069 49.4015C132.157 57.0464 148.65 63.0322 165.551 67.3589C166.226 67.5283 167.172 68.4801 168.389 70.2142C169.17 71.378 169.97 72.9018 170.787 74.7858C171.214 75.8935 171.525 76.7386 171.721 77.3211C171.952 77.8463 172.086 78.6634 172.123 79.7723C172.252 80.8581 172.043 81.6648 171.496 82.1924C160.877 94.0244 152.655 102.745 146.83 108.354C137.402 117.404 129.242 124.066 122.35 128.34C118.185 130.903 114.402 131.521 111.002 130.193ZM104.891 117.007C104.891 117.007 104.902 117.053 104.925 117.144C104.948 117.235 104.96 117.281 104.96 117.281C104.937 117.19 104.914 117.098 104.891 117.007ZM107.974 115.934C109.221 116.056 110.689 115.806 112.379 115.183C112.905 114.953 113.43 114.722 113.955 114.492C114.514 114.205 115.045 113.9 115.547 113.578C116.141 113.233 116.643 112.912 117.053 112.613C117.521 112.349 118.041 111.998 118.611 111.562C119.181 111.126 119.626 110.77 119.945 110.495C120.322 110.254 120.812 109.886 121.417 109.393C122.078 108.933 122.552 108.595 122.837 108.376C132.396 101.19 143.255 90.9747 155.413 77.7317C146.681 74.9346 138.073 71.6685 129.589 67.9331C130.166 69.4405 130.541 70.8285 130.717 72.0971C130.904 73.6057 130.713 74.5781 130.143 75.0143C125.044 78.8831 120.705 82.5838 117.126 86.1163C113.638 89.6257 110.809 93.5274 108.639 97.8216C106.547 101.853 105.29 105.721 104.867 109.427C104.711 110.731 104.618 111.994 104.587 113.218C104.578 113.755 104.602 114.235 104.66 114.658C104.66 114.658 104.655 114.732 104.644 114.881C104.758 114.949 104.93 115.052 105.159 115.188C106.087 115.585 107.025 115.834 107.974 115.934ZM213.791 109.371C214.689 111.38 215.255 113.23 215.489 114.922C215.676 116.43 215.502 117.374 214.966 117.753C209.899 120.787 205.164 124.175 200.763 127.916C198.687 129.706 196.647 131.633 194.641 133.697C194.699 134.12 194.775 134.514 194.868 134.88C195.101 136.571 194.898 137.498 194.259 137.66C192.945 138.041 191.432 138.497 189.718 139.029C186.574 142.743 183.745 146.644 181.231 150.734C178.045 155.82 175.676 160.384 174.122 164.424C173.589 165.97 173.188 167.36 172.917 168.596C173.215 169.006 173.497 169.446 173.761 169.914C174.819 171.785 175.602 173.727 176.112 175.737C176.587 177.805 176.654 179.126 176.313 179.698C176.244 179.813 176.176 179.927 176.108 180.042C176.006 180.214 175.92 180.357 175.852 180.471C175.75 180.643 175.664 180.786 175.596 180.901C175.05 181.817 174.072 181.506 172.661 179.967C169.322 176.193 166.946 171.518 165.534 165.943C164.642 162.23 164.546 158.68 165.244 155.294C165.751 152.88 166.601 150.282 167.792 147.5C166.674 148.075 166.114 148.363 166.114 148.363C161.993 150.33 157.964 152.469 154.026 154.78C153.524 155.101 152.817 155.572 151.904 156.193C150.991 156.813 150.193 157.307 149.508 157.675C148.846 158.134 148.081 158.571 147.214 158.985C146.346 159.4 145.489 159.665 144.644 159.782C143.798 159.899 142.975 159.913 142.174 159.824C139.818 159.351 137.587 157.169 135.483 153.276C133.16 149.099 132.074 145.386 132.224 142.139C132.256 141.304 132.362 140.475 132.542 139.651C132.757 138.77 133.034 137.849 133.374 136.888C133.771 135.96 134.095 135.222 134.345 134.672C134.629 134.065 135.038 133.184 135.571 132.027C136.197 130.848 136.566 130.098 136.679 129.777C145.165 112.018 156.262 95.7369 169.971 80.9342C170.586 80.292 171.497 80.9123 172.703 82.7951C174.001 84.6547 174.92 86.1725 175.461 87.3484C177.475 91.6526 177.867 94.4468 176.636 95.7311C169.913 102.978 163.775 110.806 158.221 119.215C153.521 126.192 149.29 133.488 145.529 141.103C157.238 133.955 169.746 128.332 183.053 124.232C190.412 115.657 198.799 108.548 208.214 102.905C208.774 102.618 209.633 103.129 210.792 104.441C211.709 105.375 212.709 107.019 213.791 109.371ZM289.965 149.866C293.022 158.672 292.347 165.991 287.941 171.825C285.982 174.46 283.536 176.612 280.603 178.279C277.761 179.922 274.689 181.041 271.387 181.634C268.176 182.204 264.93 182.443 261.648 182.35C258.366 182.257 255.124 181.839 251.92 181.094C240.673 178.351 231.141 172.206 223.326 162.66C222.85 167.887 222.664 172.432 222.767 176.296C222.786 178.48 222.953 180.675 223.268 182.88C223.361 183.246 223.5 183.989 223.687 185.109C223.652 185.166 223.687 185.303 223.791 185.52C223.791 185.52 223.75 185.457 223.67 185.332C223.647 185.24 223.624 185.149 223.601 185.057C223.704 185.274 223.75 185.457 223.739 185.606L223.825 185.657C223.825 185.657 223.808 185.686 223.774 185.743C223.831 185.777 223.843 185.823 223.809 185.88C223.971 186.52 224.15 187.131 224.346 187.713C224.312 187.771 224.318 187.891 224.365 188.074C224.411 188.256 224.446 188.393 224.469 188.485L224.503 188.622C224.514 188.473 224.457 188.245 224.33 187.936C224.376 188.119 224.572 188.702 224.918 189.684C224.976 189.718 225.016 189.781 225.039 189.872C225.039 189.872 225.079 189.935 225.16 190.06C225.263 190.277 225.326 190.432 225.35 190.523C225.373 190.614 225.476 190.831 225.66 191.174C225.844 191.516 225.936 191.687 225.936 191.687C226.017 191.813 226.086 191.893 226.143 191.927C226.109 191.984 226.12 192.03 226.178 192.064C226.258 192.189 226.327 192.269 226.384 192.303C226.465 192.429 226.545 192.554 226.625 192.68C226.763 192.839 226.855 193.011 226.901 193.193C227.039 193.353 227.148 193.496 227.229 193.621C226.93 193.211 226.959 193.228 227.314 193.672C227.509 193.866 227.647 194.026 227.728 194.151C228.06 194.505 228.404 194.904 228.76 195.349C228.818 195.383 228.886 195.463 228.967 195.588C229.139 195.69 229.236 195.787 229.259 195.879C229.454 196.073 229.58 196.186 229.638 196.221C230.085 196.642 230.549 197.035 231.03 197.4C231.959 198.186 232.853 198.835 233.712 199.346C235.568 200.53 237.668 201.432 240.014 202.054C244.614 203.32 249.284 203.231 254.025 201.788C254.665 201.625 255.495 202.12 256.516 203.272C257.457 204.298 258.485 205.958 259.601 208.253C260.499 210.262 261.065 212.113 261.299 213.804C261.533 215.496 261.359 216.439 260.776 216.636C254.265 218.577 248.01 218.264 242.011 215.699C236.07 213.168 231.043 208.97 226.932 203.106C222.878 197.276 219.759 190.723 217.576 183.447C216.906 181.185 216.35 178.797 215.907 176.283C213.936 181.937 212.455 187.613 211.467 193.31C211.999 195.412 212.066 196.732 211.668 197.271C211.565 197.443 211.463 197.614 211.361 197.786C211.224 198.015 211.076 198.199 210.916 198.336C210.78 198.566 210.66 198.766 210.558 198.938C210.285 199.396 209.914 199.563 209.445 199.439C208.976 199.314 208.494 198.95 208.001 198.345C207.531 197.832 207.175 197.388 206.933 197.011C206.692 196.634 206.394 196.224 206.038 195.779C205.187 194.341 204.439 192.731 203.793 190.95C202.998 188.768 202.684 187.146 202.852 186.082C203.554 180.215 204.675 174.557 206.213 169.11C208.961 159.418 213.038 150.361 218.442 141.941C220.138 139.226 221.731 136.878 223.223 134.895C216.94 136.584 211.093 139.037 205.684 142.255C205.182 142.577 204.334 142.111 203.141 140.857C202.201 139.831 201.218 138.159 200.193 135.841C199.238 133.797 198.655 131.975 198.444 130.375C198.233 128.775 198.425 127.803 199.018 127.458C210.716 120.459 223.797 117.195 238.261 117.664C251.685 118.057 263.656 121.736 274.173 128.701C281.586 133.583 286.849 140.638 289.965 149.866ZM283.834 147.261C283.869 147.204 283.857 147.159 283.8 147.124C283.857 147.159 283.869 147.204 283.834 147.261ZM284.576 148.751L284.421 148.426C284.467 148.609 284.519 148.717 284.576 148.751ZM283.886 147.176C283.839 146.993 283.788 146.884 283.73 146.85C283.73 146.85 283.713 146.879 283.679 146.936C283.736 146.97 283.777 147.033 283.8 147.124C283.8 147.124 283.828 147.141 283.886 147.176ZM250.985 167.034C253.822 167.483 256.726 167.622 259.698 167.453C262.67 167.284 265.562 166.795 268.372 165.986C271.273 165.153 273.927 163.825 276.334 161.999C278.741 160.174 280.638 157.967 282.024 155.379C282.82 153.913 283.376 152.459 283.692 151.018C283.782 150.606 283.849 150.103 283.893 149.508C283.927 149.451 283.926 149.256 283.891 148.925L283.906 148.119L284.026 148.307C283.98 148.124 283.934 147.941 283.887 147.759C283.727 147.508 283.618 147.365 283.56 147.331C283.285 147.012 283.05 146.755 282.855 146.561C282.797 146.527 282.671 146.413 282.476 146.22C282.419 146.185 282.408 146.14 282.442 146.082C282.132 145.82 281.823 145.558 281.513 145.296C280.332 144.282 278.986 143.286 277.474 142.308C275.389 140.988 272.812 139.647 269.744 138.284C261.867 134.833 253.503 132.915 244.653 132.531C244.815 133.17 244.92 133.776 244.967 134.348C245.178 135.948 245.003 136.891 244.444 137.179C239.809 139.228 235.509 142.798 231.546 147.886C229.667 150.259 227.851 152.785 226.099 155.466C228.254 157.449 230.535 159.157 232.94 160.59C238.313 163.946 244.328 166.094 250.985 167.034ZM68.5096 199.163C63.9886 201.281 58.2338 201.887 51.2452 200.983C45.206 200.178 39.0784 198.545 32.8625 196.083C24.1741 192.692 16.0988 187.88 8.63646 181.649C4.14065 191.93 0.463114 202.466 -2.39616 213.256C-2.52047 213.726 -2.78857 213.915 -3.20045 213.825C-3.61232 213.735 -4.03029 213.524 -4.45434 213.194C-5.2793 212.625 -6.28945 211.325 -7.48479 209.293C-9.80723 205.116 -10.6577 201.854 -10.0361 199.509C-7.56073 190.274 -4.48462 181.204 -0.807763 172.297C-2.28946 170.095 -3.33794 167.492 -3.95319 164.487C-4.25533 162.91 -4.28149 161.847 -4.03165 161.297C-3.79279 160.896 -3.49606 160.724 -3.14145 160.78C-2.69545 160.813 -2.33476 160.989 -2.05938 161.308C-0.660497 162.607 0.789564 163.82 2.29081 164.948C4.50519 160.059 6.90845 155.244 9.50059 150.502C8.66706 150.859 7.88532 151.325 7.15536 151.899C6.00375 152.92 4.17353 150.782 1.6647 145.484C0.709424 143.441 0.143472 141.59 -0.0331504 139.933C-0.197596 138.516 -0.0232972 137.572 0.489747 137.102C2.37131 135.507 5.31301 134.737 9.31483 134.794C11.9104 134.866 14.9697 135.136 18.4926 135.606C19.0617 134.781 19.551 134.025 19.9604 133.337C20.2907 132.913 20.6618 132.746 21.0736 132.836C21.5196 132.869 21.9492 133.125 22.3623 133.604C22.8326 134.117 23.2286 134.625 23.5503 135.127C23.9061 135.572 24.2449 136.045 24.5666 136.547C29.8405 137.594 35.0073 139.082 40.0667 141.01C56.0117 146.94 66.8342 154.63 72.5343 164.079C77.5447 172.341 79.5283 179.692 78.4849 186.133C78.0022 189.027 76.9011 191.591 75.1816 193.826C73.462 196.061 71.2381 197.84 68.5096 199.163ZM70.9273 171.27C70.8468 171.144 70.7896 171.11 70.7555 171.167L71.3751 171.886L71.2892 171.835C71.071 171.549 70.9504 171.361 70.9273 171.27ZM71.3751 171.886C71.3751 171.886 71.4037 171.903 71.461 171.937L71.4098 172.023C71.3866 171.931 71.3751 171.886 71.3751 171.886ZM41.5764 185.561C50.1113 187.386 57.1011 186.856 62.5459 183.969C64.8174 182.762 66.6648 181.224 68.0882 179.356C69.5689 177.522 70.4598 175.376 70.7609 172.917C70.8157 172.173 70.8486 171.727 70.8596 171.579C70.8133 171.396 70.7841 171.184 70.7719 170.944C70.1407 170.18 69.487 169.519 68.8107 168.961C65.5657 165.941 60.8859 162.92 54.7712 159.898C49.6069 157.364 44.2325 155.248 38.6478 153.551C34.2877 152.272 29.8314 151.286 25.2788 150.591C21.1256 157.041 17.3331 163.666 13.9012 170.468C15.6864 170.989 17.5112 171.378 19.3757 171.635C23.3677 172.228 27.3635 172.165 31.3629 171.443C33.0884 171.152 34.4538 170.879 35.4592 170.625C36.5559 170.347 37.8349 169.829 39.296 169.069C40.7571 168.31 41.7832 167.37 42.3742 166.247C42.6241 165.698 42.9951 165.531 43.4874 165.747C44.0711 165.939 44.6213 166.383 45.138 167.079C45.7119 167.809 46.1597 168.425 46.4814 168.927C46.803 169.429 47.0845 169.869 47.3258 170.245C48.3834 172.117 49.1669 174.058 49.6762 176.069C50.1854 178.079 50.2811 179.417 49.963 180.081C48.6102 182.612 45.8147 184.438 41.5764 185.561ZM110.396 220.627C116.315 212.125 122.626 204.788 129.33 198.616C133.986 192.234 141.048 187.284 150.515 183.768C151.075 183.48 151.922 183.946 153.058 185.166C153.941 186.158 154.924 187.83 156.006 190.182C156.961 192.225 157.544 194.047 157.755 195.647C157.932 197.305 157.74 198.277 157.181 198.565C150.629 201.878 144.445 206.07 138.629 211.141C137.934 211.658 137.232 212.249 136.525 212.914C135.66 214.106 134.91 215.366 134.273 216.694C132.989 219.111 132.161 221.411 131.791 223.596C131.657 224.603 131.574 225.718 131.544 226.941C131.534 227.479 131.541 227.793 131.564 227.884C131.564 227.884 131.558 227.764 131.546 227.524C131.569 227.616 131.569 227.81 131.548 228.107C131.56 228.347 131.56 228.542 131.549 228.69C131.63 228.816 131.71 228.942 131.791 229.067C132.181 229.455 132.375 229.648 132.375 229.648C133.132 230.332 133.923 230.958 134.748 231.527C135.493 231.971 136.486 233.3 137.727 235.514C138.52 236.918 139.223 238.539 139.835 240.378C140.435 242.366 140.6 243.977 140.33 245.213C140.046 245.82 139.658 246.015 139.165 245.8C133.257 242.822 127.297 240.125 121.287 237.709C119.925 237.13 118.488 236.546 116.977 235.956C109.42 247.206 101.568 262.666 93.4193 282.333C92.7953 283.902 91.2082 282.723 88.6578 278.798L88.3818 278.284C87.3815 276.447 86.598 274.505 86.0315 272.461C85.6026 270.575 85.5356 269.255 85.8306 268.5C89.6439 259.364 93.1014 251.607 96.2029 245.229C98.566 240.351 101.044 235.736 103.638 231.384C92.6168 227.999 81.3986 225.467 69.983 223.787C64.9987 231.371 60.1977 239.104 55.5802 246.984C55.4912 247.785 55.2529 248.38 54.8654 248.77C54.763 248.942 54.5693 249.137 54.2841 249.355C54.0562 249.607 53.8624 249.802 53.7028 249.94C53.2129 250.502 52.3825 250.007 51.2115 248.455C50.0978 246.938 49.2533 245.62 48.6782 244.502C47.8728 242.858 47.2447 241.242 46.7939 239.654C46.2846 237.643 46.2347 236.294 46.6442 235.607C49.2144 231.163 51.9101 226.639 54.7313 222.034C54.2049 221.875 53.316 220.958 52.0645 219.281C51.1226 217.866 50.2137 216.005 49.3376 213.698C49.2109 213.39 49.0842 213.082 48.9574 212.773C48.9221 212.442 48.8064 211.985 48.6102 211.402C48.4713 210.854 48.3726 210.368 48.3142 209.946C48.2898 209.465 48.277 209.031 48.2758 208.642C48.3087 208.196 48.4392 207.847 48.667 207.595C48.8949 207.343 49.2319 207.233 49.6779 207.266C54.1951 207.629 58.7185 208.113 63.248 208.716C71.2826 196.663 79.8559 185.009 88.9677 173.754C89.0116 173.159 89.1932 172.724 89.5125 172.449C89.638 172.368 89.8433 172.219 90.1285 172.001C90.4136 171.783 90.636 171.605 90.7957 171.467C91.0808 171.249 91.3666 171.225 91.653 171.396C92.0307 171.543 92.3859 171.794 92.7186 172.147C93.1085 172.535 93.4357 172.962 93.7001 173.43C94.0559 173.875 94.3776 174.377 94.6651 174.937C94.9868 175.439 95.211 175.844 95.3377 176.152C95.5559 176.437 95.7167 176.688 95.8203 176.905C96.683 178.583 97.3111 180.199 97.7046 181.753C98.2943 183.889 98.3899 185.226 97.9914 185.765C91.1913 194.052 84.6721 202.585 78.4338 211.362C89.3254 213.66 99.9794 216.749 110.396 220.627ZM131.758 229.513C131.735 229.422 131.711 229.33 131.688 229.239C131.711 229.33 131.735 229.422 131.758 229.513ZM131.377 228.588L131.292 228.537C131.349 228.571 131.377 228.588 131.377 228.588ZM131.792 229.65L131.878 229.701C131.878 229.701 131.85 229.684 131.792 229.65ZM131.292 228.537C131.292 228.537 131.309 228.508 131.343 228.451L131.292 228.537ZM125.662 227.045C125.442 226.371 125.223 225.697 125.004 225.023C124.605 225.562 124.275 225.986 124.013 226.296C124.505 226.511 125.055 226.761 125.662 227.045ZM143.826 297.583C138.217 295.405 133.952 289.604 131.03 280.181C129.54 275.257 129.095 270.142 129.696 264.836C130.354 259.563 131.974 254.63 134.555 250.037C138.126 243.784 144.029 237.328 152.263 230.672C152.206 230.638 152.045 230.581 151.782 230.502C151.61 230.399 151.496 230.331 151.438 230.297C149.389 229.309 147.505 226.479 145.787 221.808C145.637 221.408 145.464 220.917 145.268 220.335C145.129 219.786 144.961 219.027 144.764 218.055C144.623 217.118 144.673 216.449 144.912 216.048C145.151 215.647 145.539 215.452 146.076 215.462C146.282 215.507 146.517 215.569 146.78 215.648C147.077 215.67 147.283 215.715 147.398 215.783C147.901 215.85 148.399 216.186 148.893 216.791C164.98 224.436 181.474 230.421 198.374 234.748C199.05 234.917 199.996 235.869 201.213 237.603C201.994 238.767 202.793 240.291 203.611 242.175C204.037 243.283 204.349 244.128 204.545 244.71C204.775 245.235 204.909 246.053 204.947 247.161C205.076 248.247 204.867 249.054 204.32 249.582C193.701 261.414 185.478 270.134 179.653 275.743C170.226 284.793 162.066 291.455 155.174 295.73C151.008 298.292 147.226 298.91 143.826 297.583ZM137.714 284.396C137.714 284.396 137.726 284.442 137.749 284.533C137.772 284.624 137.784 284.67 137.784 284.67C137.76 284.579 137.737 284.487 137.714 284.396ZM140.798 283.323C142.044 283.445 143.513 283.195 145.203 282.572C145.728 282.342 146.254 282.112 146.779 281.881C147.338 281.594 147.869 281.289 148.371 280.967C148.964 280.623 149.466 280.301 149.877 280.002C150.345 279.738 150.864 279.388 151.434 278.951C152.005 278.515 152.45 278.159 152.769 277.884C153.145 277.643 153.636 277.275 154.24 276.782C154.902 276.322 155.375 275.984 155.661 275.766C165.22 268.579 176.078 258.364 188.237 245.121C179.504 242.324 170.896 239.058 162.413 235.322C162.989 236.83 163.365 238.218 163.54 239.486C163.728 240.995 163.537 241.967 162.966 242.403C157.868 246.272 153.529 249.973 149.95 253.505C146.462 257.015 143.633 260.917 141.462 265.211C139.371 269.242 138.114 273.11 137.691 276.816C137.535 278.12 137.441 279.383 137.411 280.607C137.401 281.144 137.425 281.624 137.484 282.047C137.484 282.047 137.478 282.122 137.468 282.27C137.582 282.338 137.754 282.441 137.983 282.577C138.91 282.975 139.849 283.223 140.798 283.323ZM278.187 282.184C279.675 286.33 279.842 288.719 278.689 289.352C272.412 292.984 266.859 297.746 262.03 303.637C257.2 309.529 253.556 315.972 251.096 322.965C250.575 324.361 249.308 323.491 247.298 320.353C246.976 319.851 246.735 319.474 246.574 319.223C245.688 317.454 245.019 315.581 244.567 313.604C244.185 311.902 244.175 310.615 244.538 309.745C248.188 299.581 253.947 290.829 261.813 283.487C261.756 283.453 261.698 283.419 261.641 283.385C261.641 283.385 261.612 283.368 261.555 283.333C254.87 280.747 248.23 277.955 241.635 274.957C240.418 276.87 238.575 279.769 236.106 283.652C228.209 295.864 216.392 314.2 200.655 338.659C200.451 339.002 200.182 339.192 199.851 339.227C199.577 339.297 199.285 339.2 198.975 338.938C198.666 338.676 198.373 338.386 198.098 338.066C197.823 337.747 197.524 337.336 197.202 336.834C196.938 336.366 196.725 336.007 196.565 335.756C196.461 335.539 196.346 335.276 196.219 334.968C195.242 333.222 194.573 331.349 194.212 329.349C193.76 327.372 193.722 326.069 194.097 325.439C195.212 323.698 196.885 321.086 199.115 317.603C201.437 314.098 203.155 311.474 204.27 309.733C215.99 291.495 224.621 278.051 230.162 269.402C222.433 265.573 214.828 261.469 207.349 257.09C206.575 265.553 203.534 273.131 198.227 279.825C197.145 281.12 195.637 279.873 193.705 276.083C192.728 274.337 192.059 272.464 191.698 270.464C191.257 268.339 191.247 267.052 191.669 266.605C197.272 259.545 200.215 251.87 200.499 243.58C200.475 243.488 200.486 243.34 200.531 243.134C200.577 242.928 200.65 242.739 200.753 242.567C200.889 242.338 201.02 242.183 201.146 242.103C201.363 241.999 201.586 242.016 201.815 242.152C206.889 245.098 211.957 247.923 217.019 250.629C223.203 253.925 229.575 257.101 236.136 260.157C236.511 259.527 237.074 258.582 237.825 257.322C238.633 256.096 239.236 255.214 239.635 254.675C239.874 254.274 240.113 254.068 240.353 254.055C240.685 254.02 241.005 254.133 241.315 254.395C241.681 254.692 241.974 254.982 242.192 255.267C242.501 255.529 242.8 255.94 243.087 256.499C243.409 257.001 243.622 257.361 243.725 257.578C243.829 257.795 243.99 258.046 244.208 258.331C245.094 260.1 245.734 261.956 246.129 263.899C246.198 264.173 246.256 264.401 246.302 264.584C255.255 268.444 264.384 271.943 273.689 275.081C274.33 275.308 275.162 276.191 276.184 277.732C276.908 278.861 277.575 280.346 278.187 282.184ZM267.5 371.268C261.891 369.09 257.625 363.289 254.704 353.866C253.214 348.943 252.769 343.828 253.37 338.521C254.028 333.248 255.648 328.315 258.229 323.723C261.8 317.469 267.702 311.014 275.937 304.357C275.879 304.323 275.719 304.266 275.456 304.187C275.284 304.085 275.17 304.016 275.112 303.982C273.063 302.994 271.179 300.164 269.461 295.493C269.311 295.094 269.138 294.603 268.942 294.02C268.803 293.472 268.635 292.712 268.437 291.741C268.297 290.804 268.347 290.135 268.586 289.734C268.824 289.333 269.213 289.137 269.75 289.147C269.956 289.192 270.19 289.254 270.454 289.334C270.751 289.355 270.957 289.401 271.071 289.469C271.575 289.536 272.073 289.872 272.567 290.476C288.654 298.121 305.148 304.107 322.048 308.433C322.723 308.603 323.67 309.555 324.887 311.289C325.668 312.453 326.467 313.976 327.285 315.86C327.711 316.968 328.023 317.813 328.219 318.396C328.449 318.921 328.583 319.738 328.621 320.847C328.75 321.933 328.541 322.739 327.994 323.267C317.374 335.099 309.152 343.819 303.327 349.428C293.9 358.478 285.74 365.14 278.847 369.415C274.682 371.977 270.9 372.595 267.5 371.268ZM261.388 358.081C261.388 358.081 261.4 358.127 261.423 358.218C261.446 358.31 261.457 358.356 261.457 358.356C261.434 358.264 261.411 358.173 261.388 358.081ZM264.472 357.009C265.718 357.13 267.187 356.88 268.877 356.257C269.402 356.027 269.927 355.797 270.453 355.567C271.012 355.279 271.543 354.974 272.045 354.653C272.638 354.308 273.14 353.986 273.551 353.688C274.019 353.423 274.538 353.073 275.108 352.637C275.679 352.201 276.123 351.845 276.443 351.569C276.819 351.328 277.31 350.961 277.914 350.467C278.576 350.008 279.049 349.669 279.334 349.451C288.893 342.264 299.752 332.049 311.91 318.806C303.178 316.009 294.57 312.743 286.087 309.008C286.663 310.515 287.039 311.903 287.214 313.172C287.402 314.68 287.21 315.653 286.64 316.089C281.541 319.958 277.202 323.658 273.623 327.191C270.136 330.7 267.306 334.602 265.136 338.896C263.045 342.927 261.788 346.795 261.365 350.501C261.209 351.805 261.115 353.069 261.085 354.292C261.075 354.83 261.099 355.31 261.158 355.733C261.158 355.733 261.152 355.807 261.141 355.956C261.256 356.024 261.428 356.126 261.657 356.263C262.584 356.66 263.522 356.909 264.472 357.009Z" fill="#A4A4A4"/>
</mask>
<g mask="url(#mask0_294_4)">
<rect x="5.5" y="47.5001" width="300" height="281" fill="#D9D9D9" stroke="black"/>
</g>
</svg>
