<svg width="1473" height="750" viewBox="0 0 1473 750" fill="none" xmlns="http://www.w3.org/2000/svg">
<rect width="1473" height="750" fill="#1E1E1E" style="fill:#1E1E1E;fill:color(display-p3 0.1176 0.1176 0.1176);fill-opacity:1;"/>
<g clip-path="url(#clip0_75_21)">
<rect width="1473" height="750" fill="white" style="fill:white;fill:white;fill-opacity:1;"/>
<rect x="0.000244141" y="0.000732422" width="1473" height="750" fill="#A4A4A4" style="fill:#A4A4A4;fill:color(display-p3 0.6449 0.6449 0.6449);fill-opacity:1;"/>
<path d="M1367.2 49.7521C1365.03 51.7661 1363.59 63.0459 1365.3 64.4683C1365.76 64.8416 1366.4 64.9862 1366.76 64.7725C1368.97 63.4625 1370.44 51.9718 1368.66 50.0564C1368.02 49.3629 1367.69 49.3046 1367.2 49.7521Z" fill="#616161" fill-opacity="0.3" style="fill:#616161;fill:color(display-p3 0.3816 0.3816 0.3816);fill-opacity:0.3;"/>
<path d="M1359.93 82.889C1358.99 83.7562 1357.24 89.4322 1357.19 91.8059C1357.12 93.9637 1357.21 94.1238 1358.12 94.1995C1359.03 94.2753 1359.18 94.1355 1359.99 92.3433C1360.47 91.2858 1361.06 89.4455 1361.27 88.2738C1361.94 84.7636 1361.16 81.7422 1359.93 82.889Z" fill="#616161" fill-opacity="0.3" style="fill:#616161;fill:color(display-p3 0.3816 0.3816 0.3816);fill-opacity:0.3;"/>
<path d="M1356.89 101.047C1355.17 102.641 1353.37 110.264 1353.58 114.854C1353.83 120.026 1355.64 117.799 1357.11 110.483C1357.93 106.406 1358.24 102.622 1357.83 101.339C1357.62 100.559 1357.46 100.516 1356.89 101.047Z" fill="#616161" fill-opacity="0.3" style="fill:#616161;fill:color(display-p3 0.3816 0.3816 0.3816);fill-opacity:0.3;"/>
<path d="M1428.38 232.813C1424.47 230.049 1418.23 227.793 1412.64 227.145C1406.8 226.477 1403.77 227.018 1401.41 229.199C1399 231.437 1398.26 234.332 1398.6 240.518C1398.74 243.395 1398.62 246.767 1398.29 247.929C1397.79 249.929 1397.46 250.359 1393.29 254.524C1389.28 258.488 1388.83 259.091 1388.95 260.016C1389.21 261.378 1390.52 262.798 1392.23 263.489C1393.75 264.103 1393.93 264.057 1397.98 261.224C1400.01 259.838 1401.74 258.975 1402.98 258.743C1405.86 258.221 1410.67 258.864 1416.6 260.546C1422.51 262.256 1424.57 262.489 1426.79 261.728C1430.33 260.59 1434.71 256.168 1436.26 252.152C1438.68 245.921 1435.37 237.813 1428.38 232.813Z" fill="#616161" fill-opacity="0.3" style="fill:#616161;fill:color(display-p3 0.3816 0.3816 0.3816);fill-opacity:0.3;"/>
<path d="M1342.05 165.438C1339.03 163.876 1337.3 164.007 1335.16 165.993C1331.47 169.405 1329.78 175.33 1330.08 183.951C1330.46 195.138 1329.17 201.859 1322.81 222.056C1317.43 239.074 1316.42 242.587 1313.2 255.395C1310.65 265.486 1305.94 282.621 1301.93 296.217C1295.52 318.118 1288.31 343.396 1279.77 374.325C1274.55 393.155 1268.35 415.348 1265.98 423.624C1259.24 447.236 1258.77 449.025 1257.57 455.234C1256.95 458.445 1255.82 465.635 1255 471.237C1252.94 485.666 1251.91 489.329 1248.03 495.011C1245.71 498.385 1239.77 504.993 1237.26 507.01C1234.54 509.161 1233 509.368 1230.53 507.974C1225.31 505.071 1223.3 504.417 1217.8 503.929C1210.75 503.282 1206.38 504.26 1202.91 507.172C1200.1 509.529 1199.66 511.168 1200.71 514.548C1203.16 521.976 1208.98 532.975 1212.62 537.027C1214.91 539.564 1215.19 539.74 1217.99 540.643C1222.5 542.115 1222.83 542.539 1224.18 548.412C1225.49 554.19 1227.1 558.165 1230.36 563.556C1231.8 565.962 1233.28 568.767 1233.71 569.839C1234.92 573.079 1233.68 573.982 1231.35 571.533C1228.91 568.952 1222.94 567.176 1214.64 566.639C1209.23 566.311 1206.11 566.692 1204.87 567.838C1203.93 568.705 1204.15 573.478 1205.24 577.135C1207.1 583.142 1206.72 585.275 1203.07 589.635C1200.21 593.024 1199.08 596.1 1199.08 600.581C1199.08 609.725 1203.67 619.098 1212.57 628.037C1215.54 630.996 1216.42 631.71 1219.1 632.969C1227.55 636.993 1241.05 639.823 1247.18 638.808C1250.7 638.248 1252.53 638.582 1253.87 640.035C1254.76 640.993 1254.82 641.364 1254.28 642.599C1253.57 644.369 1254.06 645.324 1257.42 648.591C1260.27 651.357 1262.46 652.393 1264.43 651.855C1267.31 651.089 1267.74 646.949 1266 636.715C1264.67 628.984 1264.39 623.78 1265.13 619.97C1265.42 618.287 1265.5 616.251 1265.31 615.382C1264.59 612.61 1262.67 611.261 1261.22 612.604C1260.58 613.191 1260.52 616.752 1261.11 618.721C1262.13 622.19 1257.91 635.799 1255.55 636.7C1253.85 637.29 1252.46 633.059 1250.22 620.468C1249.33 615.456 1248.02 609.678 1247.36 607.642C1245.56 602.128 1244.28 600.314 1238.47 594.893C1232.2 589.038 1231.86 588.065 1235.59 586.821C1237.71 586.143 1238.65 586.435 1239.42 588.054C1240.81 591.004 1245.62 592.684 1250.23 591.909C1252.39 591.57 1253.21 591.181 1254.59 589.894C1256.5 588.132 1258.28 587.274 1258.83 587.869C1259.02 588.067 1259.7 590.196 1260.32 592.504C1262.72 601.512 1264.43 602.202 1266.69 595.136C1267.82 591.572 1267.91 591.366 1270.63 588.91C1273.68 586.146 1276.4 584.604 1281.49 582.833C1285.1 581.578 1285.37 581.082 1283.86 578.793C1281.75 575.661 1278.35 563.705 1277.58 556.691C1277.35 554.569 1277.35 554.569 1278.14 555.427C1280.35 557.805 1283.94 568.345 1284.41 573.809C1284.5 574.823 1284.88 576.012 1285.27 576.442C1286.25 577.498 1288.11 577.5 1288.77 576.458C1289.67 575.009 1289.92 571.402 1289.38 568.401C1288.91 565.893 1288.6 565.319 1287.13 563.794C1285.54 562.138 1285.48 561.95 1285.4 559.078C1285.38 555.602 1284.45 553.574 1281.3 550.111C1278.36 546.88 1276.83 545.839 1274.16 545.373C1271.27 544.858 1269.77 543.728 1268.26 540.89C1266.48 537.572 1265.69 532.903 1265.52 525.208C1265.33 515.987 1265.14 515.118 1263.19 513.493C1261.69 512.301 1261.6 512.08 1261.49 509.602C1261.24 504.492 1264.47 491.744 1266.46 489.898C1267.18 489.227 1267.82 489.067 1269.01 489.379C1269.92 489.576 1270.86 489.502 1271.19 489.195C1272.07 488.383 1271.54 485.992 1270 483.914C1268.23 481.45 1268.21 478.705 1270.08 472.185C1271.71 466.255 1272.21 463.706 1273.83 452.685C1278.07 423.593 1291.77 361.729 1307.52 300.431C1317.55 261.305 1319.62 252.515 1320.3 245.805C1320.56 243.419 1321.18 240.94 1322.02 239.181C1323.57 235.836 1325.65 229.303 1329.21 216.492C1332.41 204.871 1333.28 202.596 1334.67 201.553C1335.64 200.841 1335.94 200.867 1337.8 201.905C1338.96 202.55 1340.73 203.489 1341.73 204.03C1342.77 204.604 1344.72 205.193 1346.06 205.365C1351.77 206.084 1354.9 201.711 1354.66 193.522C1354.51 189.121 1353.7 185.273 1351.59 179.307C1348.68 171.201 1346.26 167.677 1342.05 165.438Z" fill="#616161" fill-opacity="0.3" style="fill:#616161;fill:color(display-p3 0.3816 0.3816 0.3816);fill-opacity:0.3;"/>
<path d="M1454.75 295.477C1446.85 290.462 1439.92 291.045 1438.63 296.85C1437.68 301.1 1439.16 307.776 1441.98 312.095C1443.64 314.61 1446.3 316.812 1449.41 318.29C1451.93 319.445 1457.86 320.09 1460.32 319.471C1462.53 318.832 1464.59 317.113 1465.18 315.334C1466.93 309.719 1461.8 299.934 1454.75 295.477Z" fill="#616161" fill-opacity="0.3" style="fill:#616161;fill:color(display-p3 0.3816 0.3816 0.3816);fill-opacity:0.3;"/>
<path d="M1293.42 129.787L1292.17 129.531L1292.36 131.071C1292.46 131.902 1292.83 132.909 1293.2 133.305C1294.15 134.329 1296.98 135.387 1297.49 134.911C1298.43 134.044 1295.3 130.127 1293.42 129.787Z" fill="#616161" fill-opacity="0.3" style="fill:#616161;fill:color(display-p3 0.3816 0.3816 0.3816);fill-opacity:0.3;"/>
<path d="M1281.51 175.006C1280.87 174.923 1279.09 176.756 1278.74 177.824C1278.29 179.28 1278.28 181.382 1278.7 181.844C1279.38 182.571 1280.96 182.458 1281.83 181.647C1282.86 180.696 1283.18 178.497 1282.59 176.65C1282.09 175.085 1282.06 175.052 1281.51 175.006Z" fill="#616161" fill-opacity="0.3" style="fill:#616161;fill:color(display-p3 0.3816 0.3816 0.3816);fill-opacity:0.3;"/>
<path d="M1282.05 186.481C1281.56 187.05 1281.45 188.138 1281.67 189.772C1281.87 191.129 1281.88 192.715 1281.67 193.338C1281.13 195.122 1279.17 196.757 1277.62 196.659C1276.37 196.586 1275.89 196.241 1272.19 192.55C1269.92 190.35 1267.42 188.13 1266.56 187.632C1265.01 186.68 1263.61 186.625 1263.4 187.552C1263.29 188.335 1263.88 190.061 1264.61 190.853C1266.42 192.802 1266.05 196.581 1263.64 200.405C1260.04 206.201 1260.16 211.119 1264.07 219.399C1265.92 223.272 1266.35 223.856 1269.9 227.687C1273.15 231.187 1274.09 232.028 1276.11 233.049C1282.32 236.248 1290.26 237.731 1294.87 236.529C1297.45 235.859 1297.99 235.539 1299.71 233.7C1301.28 232.063 1301.94 230.959 1302.83 228.29C1305.52 220.405 1303.07 213.588 1292.74 200.019C1289.86 196.244 1286.76 191.81 1285.84 190.149C1283.47 185.898 1282.95 185.398 1282.05 186.481Z" fill="#616161" fill-opacity="0.3" style="fill:#616161;fill:color(display-p3 0.3816 0.3816 0.3816);fill-opacity:0.3;"/>
<path d="M1264.56 169.604C1258.74 167.566 1254.39 170.496 1256.3 175.227C1257.01 177.024 1260.01 179.711 1263 181.301C1266.01 182.923 1270.15 184.121 1270.97 183.609C1271.88 183.075 1271.73 178.551 1270.73 175.787C1269.65 172.679 1267.66 170.715 1264.56 169.604Z" fill="#616161" fill-opacity="0.3" style="fill:#616161;fill:color(display-p3 0.3816 0.3816 0.3816);fill-opacity:0.3;"/>
<path d="M1343.65 275.178C1339.16 272.946 1333.96 272.057 1332.67 273.26C1331.13 274.686 1330.97 283.177 1332.39 286.709C1334.15 291.093 1344.48 295.517 1348.27 293.546C1351.11 292.075 1352.51 288.077 1351.51 284.275C1351.01 282.344 1350.46 281.445 1348.53 279.181C1346.54 276.852 1345.78 276.209 1343.65 275.178Z" fill="#616161" fill-opacity="0.3" style="fill:#616161;fill:color(display-p3 0.3816 0.3816 0.3816);fill-opacity:0.3;"/>
<path d="M1394.85 335.701C1391.64 333.453 1388.36 333.363 1387.07 335.42C1386.14 336.958 1386.22 340.745 1387.34 344.008C1389.26 349.715 1394.06 354.168 1397.76 353.683C1400.37 353.351 1402.69 349.917 1402.51 346.519C1402.44 344.135 1401.33 342.031 1398.73 339.285C1397.38 337.893 1395.64 336.255 1394.85 335.701Z" fill="#616161" fill-opacity="0.3" style="fill:#616161;fill:color(display-p3 0.3816 0.3816 0.3816);fill-opacity:0.3;"/>
<path d="M1241.18 184.943C1239.6 184.812 1238.45 185.875 1238.46 187.461C1238.47 188.925 1238.69 189.217 1240.67 190.082C1243.41 191.286 1244.89 190.281 1244.05 187.743C1243.5 185.928 1242.64 185.064 1241.18 184.943Z" fill="#616161" fill-opacity="0.3" style="fill:#616161;fill:color(display-p3 0.3816 0.3816 0.3816);fill-opacity:0.3;"/>
<path d="M1405.31 364.186C1402.99 363.323 1401.3 364.95 1402.05 367.329C1402.76 369.613 1404.44 371.063 1406.48 371.263C1407.45 371.344 1408.42 371.242 1408.6 371.074C1408.79 370.906 1408.96 369.945 1408.95 368.969C1408.91 366.924 1407.47 365.005 1405.31 364.186Z" fill="#616161" fill-opacity="0.3" style="fill:#616161;fill:color(display-p3 0.3816 0.3816 0.3816);fill-opacity:0.3;"/>
<path d="M1417.33 385.82C1416.9 385.48 1416.02 385.254 1415.38 385.293C1412.23 385.701 1413.82 391.411 1417.5 392.845C1418.84 393.322 1419.38 392.758 1419.46 390.661C1419.54 388.808 1418.71 386.94 1417.33 385.82Z" fill="#616161" fill-opacity="0.3" style="fill:#616161;fill:color(display-p3 0.3816 0.3816 0.3816);fill-opacity:0.3;"/>
<path d="M1380.09 346.118C1378.93 345.534 1376.89 348.717 1376.91 350.974C1376.95 352.593 1378.08 353.449 1380.66 353.877C1382.58 354.189 1383.06 354.107 1383.24 353.451C1383.69 352.117 1381.31 346.707 1380.09 346.118Z" fill="#616161" fill-opacity="0.3" style="fill:#616161;fill:color(display-p3 0.3816 0.3816 0.3816);fill-opacity:0.3;"/>
<path d="M1423.04 394.647C1422.07 394.566 1420.98 395.634 1421.08 396.526C1421.21 397.817 1422.25 399.184 1423.32 399.485C1424.32 399.721 1424.35 399.632 1424.34 397.498C1424.32 395.119 1424.14 394.738 1423.04 394.647Z" fill="#616161" fill-opacity="0.3" style="fill:#616161;fill:color(display-p3 0.3816 0.3816 0.3816);fill-opacity:0.3;"/>
<path d="M1435.63 409.256C1432.27 407.393 1430.09 407.821 1429.38 410.566C1428.52 413.756 1431.16 417.755 1434.66 418.625C1437.42 419.312 1440.05 416.94 1439.61 414.098C1439.29 412.121 1438.13 410.683 1435.63 409.256Z" fill="#616161" fill-opacity="0.3" style="fill:#616161;fill:color(display-p3 0.3816 0.3816 0.3816);fill-opacity:0.3;"/>
<path d="M1275.63 238.465C1272.94 237.145 1272.51 239.943 1275.02 242.651C1276.94 244.732 1278.62 245.511 1279.31 244.624C1280.31 243.335 1278.19 239.775 1275.63 238.465Z" fill="#616161" fill-opacity="0.3" style="fill:#616161;fill:color(display-p3 0.3816 0.3816 0.3816);fill-opacity:0.3;"/>
<path d="M1344.48 312.769C1342.65 311.458 1342.07 311.563 1341.59 313.047C1340.73 315.749 1342.5 321.352 1344.67 322.843C1347.23 324.641 1350.05 323.565 1349.73 320.917C1349.44 318.546 1346.71 314.326 1344.48 312.769Z" fill="#616161" fill-opacity="0.3" style="fill:#616161;fill:color(display-p3 0.3816 0.3816 0.3816);fill-opacity:0.3;"/>
<path d="M1449.31 429.292C1448 428.726 1445.42 429.029 1444.54 429.84C1443.64 430.68 1443.44 432.827 1444.15 434.502C1445.11 436.745 1447.46 439.349 1448.92 439.714C1451.36 440.344 1454.59 437.778 1454.45 435.328C1454.35 433.704 1451.32 430.068 1449.31 429.292Z" fill="#616161" fill-opacity="0.3" style="fill:#616161;fill:color(display-p3 0.3816 0.3816 0.3816);fill-opacity:0.3;"/>
<path d="M1334.01 336.649C1327.05 331.132 1315.21 328.838 1307.7 331.627C1305.34 332.467 1303.68 334.676 1302.25 338.886C1300.2 344.964 1300.81 350.41 1304.67 359.417C1307.04 364.949 1307.82 367.299 1307.67 368.354C1307.62 368.654 1306.52 368.746 1305.25 368.579C1303.33 368.328 1302.79 368.466 1301.79 369.389C1299.65 371.375 1299.3 374.516 1300.53 381.111C1301.41 385.634 1301.37 388.13 1300.43 387.838C1299.7 387.595 1297.89 389.456 1297.44 390.912C1296.93 392.486 1297.99 395.804 1299.52 397.456C1302.95 401.154 1308.2 400.768 1308.63 396.811C1308.68 396.023 1308.55 394.549 1308.24 393.487C1307.46 390.587 1307.85 390.224 1311.5 390.71C1315.09 391.191 1317.24 390.669 1319.24 388.823C1321.74 386.501 1322.24 384.135 1321 380.313C1319.82 376.679 1320.55 376.496 1328.19 378.502C1334.55 380.159 1338.19 379.913 1342 377.486C1346.18 374.785 1348.21 370.26 1348.14 363.945C1348.03 356.986 1345.59 350.901 1339.67 342.697C1337.28 339.45 1336.6 338.724 1334.01 336.649Z" fill="#616161" fill-opacity="0.3" style="fill:#616161;fill:color(display-p3 0.3816 0.3816 0.3816);fill-opacity:0.3;"/>
<path d="M1377.49 517.141C1374.87 515.582 1372.71 516.043 1371.51 518.382C1370.58 520.103 1371.35 521.782 1373.8 523.57C1377.15 526.044 1380.25 526.18 1381.3 523.981C1382.02 522.394 1379.87 518.497 1377.49 517.141Z" fill="#616161" fill-opacity="0.3" style="fill:#616161;fill:color(display-p3 0.3816 0.3816 0.3816);fill-opacity:0.3;"/>
<path d="M1333.79 478.578C1327.37 477.039 1321.01 479.802 1319.86 484.613C1319.38 486.525 1320.42 492.067 1321.56 493.716C1323.09 495.916 1329.8 499.522 1332.72 499.642C1333.96 499.715 1334.39 499.507 1335.29 498.363C1336.68 496.649 1337.67 491.367 1337.75 485.522C1337.81 480.436 1337.23 479.443 1333.79 478.578Z" fill="#616161" fill-opacity="0.3" style="fill:#616161;fill:color(display-p3 0.3816 0.3816 0.3816);fill-opacity:0.3;"/>
<path d="M1303.6 461.438C1301.89 460.504 1300.74 460.164 1299.03 460.205C1295.09 460.182 1294.38 467.59 1297.99 471.487C1300.47 474.162 1306.28 475.651 1308.85 474.311C1310.27 473.606 1310.92 471.039 1310.3 468.914C1309.68 466.912 1305.98 462.794 1303.6 461.438Z" fill="#616161" fill-opacity="0.3" style="fill:#616161;fill:color(display-p3 0.3816 0.3816 0.3816);fill-opacity:0.3;"/>
<path d="M1227.94 382.698C1226.79 382.602 1225.04 384.529 1224.87 386.039C1224.64 387.787 1225.87 390.694 1227.68 392.703C1229.21 394.416 1230.52 394.921 1231.36 394.138C1232.18 393.382 1231.69 388.617 1230.52 385.96C1229.28 383.236 1228.92 382.778 1227.94 382.698Z" fill="#616161" fill-opacity="0.3" style="fill:#616161;fill:color(display-p3 0.3816 0.3816 0.3816);fill-opacity:0.3;"/>
<path d="M1308.29 499.624C1306.53 498.746 1303.76 498.302 1303.15 498.862C1302.37 499.589 1302.8 504.166 1303.81 506.11C1304.98 508.401 1307.86 511.384 1309.47 512.036C1313.07 513.493 1315.44 509.941 1313.74 505.685C1313.06 503.983 1309.88 500.426 1308.29 499.624Z" fill="#616161" fill-opacity="0.3" style="fill:#616161;fill:color(display-p3 0.3816 0.3816 0.3816);fill-opacity:0.3;"/>
<path d="M1236.66 427.101C1235.26 427.228 1234.42 428.743 1234.5 430.822C1234.54 432.624 1235.39 433.061 1237.24 432.27C1238.57 431.71 1238.75 431.481 1238.96 430.248C1239.19 428.439 1238.12 426.978 1236.66 427.101Z" fill="#616161" fill-opacity="0.3" style="fill:#616161;fill:color(display-p3 0.3816 0.3816 0.3816);fill-opacity:0.3;"/>
<path d="M1190.3 381.306C1186.28 380.118 1181.96 379.76 1181.09 380.571C1179.52 382.025 1181.17 392.038 1183.4 394.449C1184.93 396.1 1188.16 397.283 1192.26 397.654C1196.43 398.031 1197.91 397.575 1198.32 395.659C1198.85 393.02 1196.4 385.471 1194.29 383.192C1193.77 382.631 1192.09 381.851 1190.3 381.306Z" fill="#616161" fill-opacity="0.3" style="fill:#616161;fill:color(display-p3 0.3816 0.3816 0.3816);fill-opacity:0.3;"/>
<path d="M1222.17 422.604C1218.36 421.038 1213.01 420.166 1210.55 420.785C1206.82 421.664 1205.26 424.521 1205.48 429.904C1205.63 434.306 1206.69 437.747 1208.46 439.662C1210.12 441.445 1215.61 444.767 1219.17 446.191C1222.52 447.506 1224.83 447.271 1227.7 445.406C1232.78 442.171 1233.06 438.841 1229.18 430.228C1226.87 425.189 1225.89 424.132 1222.17 422.604Z" fill="#616161" fill-opacity="0.3" style="fill:#616161;fill:color(display-p3 0.3816 0.3816 0.3816);fill-opacity:0.3;"/>
<path d="M1315.49 522.107C1313.79 521.295 1311.9 521.26 1311.36 522.069C1310.73 522.961 1313.82 526.541 1316.02 527.454C1320.16 529.14 1319.64 524.037 1315.49 522.107Z" fill="#616161" fill-opacity="0.3" style="fill:#616161;fill:color(display-p3 0.3816 0.3816 0.3816);fill-opacity:0.3;"/>
<path d="M1279.21 488.276C1278.04 490.403 1278.15 493.43 1279.37 493.836C1280.31 494.128 1280.84 492.161 1280.46 489.813C1280.11 487.558 1279.81 487.167 1279.21 488.276Z" fill="#616161" fill-opacity="0.3" style="fill:#616161;fill:color(display-p3 0.3816 0.3816 0.3816);fill-opacity:0.3;"/>
<path d="M1244.47 467.923C1243.32 467.949 1242.84 469.189 1243.07 471.86C1243.3 474.653 1244.56 477.227 1246.09 477.903C1246.67 478.164 1247.3 478.187 1247.55 477.963C1248.3 477.264 1248.28 474.153 1247.5 471.802C1246.67 469.203 1245.68 467.902 1244.47 467.923Z" fill="#616161" fill-opacity="0.3" style="fill:#616161;fill:color(display-p3 0.3816 0.3816 0.3816);fill-opacity:0.3;"/>
<path d="M1280.51 515.299C1277.47 513.582 1273.54 513.104 1271.58 514.251C1269.07 515.719 1270.86 520.806 1275.48 525.182C1281.01 530.428 1285.46 527.719 1283.68 520.164C1283.08 517.585 1282.22 516.294 1280.51 515.299Z" fill="#616161" fill-opacity="0.3" style="fill:#616161;fill:color(display-p3 0.3816 0.3816 0.3816);fill-opacity:0.3;"/>
<path d="M1246.84 481.623C1245.75 481.41 1245.47 481.54 1245.3 482.257C1244.82 484.168 1246.97 487.517 1248.98 487.988C1250.35 488.315 1250.68 487.215 1249.84 484.92C1248.94 482.438 1248.45 481.909 1246.84 481.623Z" fill="#616161" fill-opacity="0.3" style="fill:#616161;fill:color(display-p3 0.3816 0.3816 0.3816);fill-opacity:0.3;"/>
<path d="M1230.46 484.589C1229.49 484.509 1229.15 484.694 1228.94 485.378C1228.59 486.568 1228.81 487.226 1229.88 488.321C1231.04 489.515 1232.19 489.733 1233.1 488.893C1234.43 487.663 1232.65 484.771 1230.46 484.589Z" fill="#616161" fill-opacity="0.3" style="fill:#616161;fill:color(display-p3 0.3816 0.3816 0.3816);fill-opacity:0.3;"/>
<path d="M1262.95 603.878C1262.35 604.01 1262.21 607.078 1262.8 608.255C1263.57 609.812 1266.14 608.41 1265.64 606.723C1265.24 605.501 1263.65 603.784 1262.95 603.878Z" fill="#616161" fill-opacity="0.3" style="fill:#616161;fill:color(display-p3 0.3816 0.3816 0.3816);fill-opacity:0.3;"/>
<path d="M1270.26 655.967C1268.53 655.427 1267.35 656.03 1267.84 657.168C1268.33 658.306 1270.41 660.369 1271.6 660.925C1273.03 661.562 1273.73 661.285 1273.96 659.963C1274.2 658.519 1272.42 656.604 1270.26 655.967Z" fill="#616161" fill-opacity="0.3" style="fill:#616161;fill:color(display-p3 0.3816 0.3816 0.3816);fill-opacity:0.3;"/>
<path d="M1260.62 654.343C1255.83 651.171 1248.13 649.403 1243.83 650.448C1238.91 651.685 1236.45 655.87 1236.71 662.627C1237.07 671.436 1240.9 679.557 1246.73 683.851C1251.31 687.219 1258 688.873 1263.31 688.003C1265.8 687.601 1266.37 687.313 1268.12 685.691C1269.54 684.315 1270.24 683.306 1270.71 681.821C1272.5 676.239 1272.06 669.833 1269.59 664.507C1268.02 661.115 1264.01 656.545 1260.62 654.343Z" fill="#616161" fill-opacity="0.3" style="fill:#616161;fill:color(display-p3 0.3816 0.3816 0.3816);fill-opacity:0.3;"/>
<path d="M1184.91 580.566C1183.38 579.525 1179.4 578.553 1177.73 578.811C1176.12 579.073 1176.03 579.157 1175.76 580.385C1175.15 583.534 1176.02 587.509 1177.8 589.424C1179.21 590.943 1182.55 591.709 1185.04 591.062C1187.5 590.382 1188.07 589.851 1188.54 587.878C1189.16 585.339 1187.75 582.478 1184.91 580.566Z" fill="#616161" fill-opacity="0.3" style="fill:#616161;fill:color(display-p3 0.3816 0.3816 0.3816);fill-opacity:0.3;"/>
<path d="M-31.5491 41.3551C-25.629 46.4693 -14.2077 48.7686 -2.51674 47.1656C3.36673 46.3756 4.54161 45.2377 1.39721 43.2887C-2.90127 40.492 -8.9091 39.5013 -21.4546 39.2683L-34.1752 39.0653L-31.5491 41.3551Z" fill="#616161" fill-opacity="0.3" style="fill:#616161;fill:color(display-p3 0.3816 0.3816 0.3816);fill-opacity:0.3;"/>
<path d="M17.3221 51.2689C17.6905 55.5306 20.7128 57.6085 36.1999 64.294C52.2191 71.1408 55.9924 74.0273 54.8244 78.1554C54.5709 78.9916 53.4721 80.1526 52.3594 80.8114L50.4543 81.894L56.1488 83.3708C63.7139 85.2485 65.7571 86.4487 64.785 88.5611C64.3104 89.5793 62.7255 90.427 60.1984 90.8231C53.8957 91.9011 52.7139 92.7879 52.1632 96.5221C51.237 103.96 53.6833 110.678 59.1635 115.327C60.4765 116.472 67.0095 120.112 73.6346 123.447C85.3046 129.308 91.1212 133.395 92.4434 136.701C92.7382 137.371 92.487 140.117 91.8327 142.824L90.7085 147.629L78.9877 143.579C70.5888 140.618 66.4377 139.526 64.2009 139.513C62.5192 139.584 61.1716 139.923 61.3075 140.296C61.3444 140.722 63.4475 142.272 65.7788 143.892C72.5075 148.255 83.3414 151.123 99.0405 152.727C120.232 154.833 131.674 157.886 138.985 163.339C145.12 168.02 150.286 173.155 151.724 176.08C154.251 181.162 159.837 186.009 165.082 187.599C170.556 189.257 177.349 189.573 183.926 188.412C188.577 187.581 215.652 177.941 218.464 176.054C219.082 175.66 220.793 173.025 222.247 170.146C223.777 167.289 225.465 164.73 225.961 164.465C226.555 164.147 227.967 165.239 229.87 167.725C236.594 176.485 246.879 187.737 251.38 191.508C257.4 196.569 264.414 199.442 267.856 198.493C270.871 197.581 273.398 194.445 275.124 189.573C276.757 185.005 276.32 183.711 271.706 179.49C267.714 175.956 267.133 174.037 269.646 173.139C274.201 171.531 279.667 175.678 283.859 183.755C285.85 187.595 290.68 193.292 292.353 193.799C292.429 193.822 292.876 191.799 293.362 189.373C293.88 186.293 293.832 184.536 292.998 183.453C292.399 182.69 290.261 179.885 288.306 177.3C286.35 174.715 283.703 171.672 282.489 170.474C281.275 169.276 279.19 166.569 277.926 164.443C276.737 162.34 274.523 159.511 273.028 158.145C270.084 155.261 263.807 141.738 262.978 136.258C261.953 130.054 263.635 127.244 268.986 126.293C270.06 126.037 275.036 126.051 280.064 126.164C290.35 126.459 294.08 125.929 299.39 123.471C302.589 121.951 303.2 121.306 304.121 118.265C305.642 113.248 307.328 111.518 311.302 110.73C316.653 109.779 318.082 110.544 317.114 113.737L316.308 116.397L319.881 117.48C324.138 118.77 329.45 118.222 332.91 116.117C334.617 115.14 335.831 113.599 336.911 110.855C339.303 104.608 339.075 101.8 335.769 97.6441C331.084 91.7421 327.006 91.5025 319.003 96.5472C314.484 99.4105 313.412 98.8369 312.659 93.3796C311.883 87.9983 313.904 81.0575 316.861 78.9659C319.819 76.8743 322.185 77.0103 323.503 79.2356C324.426 80.8435 324.807 80.9587 325.615 80.2078C326.256 79.7379 327.043 78.2336 327.458 76.8653C327.942 75.2689 329.43 73.6449 331.771 71.9471C333.768 70.5604 338.175 67.2479 341.545 64.6173C348.652 58.969 350.564 55.3984 348.26 52.0443C345.51 47.9737 339.23 48.9756 337.802 53.6888C336.374 58.402 333.052 60.0513 325.924 59.4683C316.332 58.8023 313.057 52.0825 310.505 28.733C309.473 19.5392 307.225 12.7158 304.401 10.5319C303.451 9.82925 301.074 8.36179 299.137 7.35966C297.124 6.3345 294.488 4.62284 293.175 3.47791C291.065 1.67642 289.013 1.05439 276.209 -2.16178C268.165 -4.10163 260.782 -5.75812 259.777 -5.73051C258.347 -5.66604 257.308 -6.8939 254.408 -11.8398C251.478 -16.9609 250.416 -18.1127 248.211 -18.7808C246.007 -19.4489 245.438 -20.0364 245.025 -22.2363C244.434 -25.4868 243.088 -25.9775 240.305 -23.9158L238.262 -22.377L237.546 -27.4081C237.196 -30.0873 236.975 -32.6443 237.044 -32.8724C237.389 -34.0126 234.169 -38.7236 231.778 -40.6933C227.019 -44.7086 222.036 -44.9737 202.962 -42.2881C193.174 -40.9384 182.992 -40.2061 181.091 -40.7821C180.787 -40.8742 181.665 -41.8533 183.068 -42.9221C189.152 -47.3864 192.133 -52.293 192.416 -58.4322C192.667 -63.9171 191.248 -65.2601 182.704 -68.0155C172.997 -71.0404 169.009 -70.7548 164.729 -66.4909C162.135 -63.957 160.947 -63.3212 158.307 -63.3743C153.658 -63.3721 151.631 -64.8995 150.866 -68.9492C149.788 -75.252 146.789 -77.4059 140.638 -76.2819C134.236 -75.151 131.486 -71.0046 134.098 -66.4779C136.286 -62.7436 138.062 -61.2094 143.1 -58.9356C147.811 -56.6779 150.923 -56.8138 157.717 -59.237L160.801 -60.3772L165.572 -52.2914C168.23 -47.9167 170.333 -43.6273 170.179 -42.8441C170.036 -40.7294 168.216 -40.2019 165.298 -41.2524C161.741 -42.6623 156.438 -42.6924 155.468 -41.4093C155.056 -40.8703 155.132 -38.1082 155.763 -35.2609C156.341 -32.5127 156.493 -29.7276 156.08 -29.1886C155.668 -28.6495 153.62 -28.1912 151.71 -28.1889L148.066 -28.2144L145.744 -33.1511C144.489 -35.8556 142.89 -38.2491 142.206 -38.4564C140.153 -39.0784 138.568 -35.4917 139.319 -31.9441C140.16 -27.8713 142.397 -25.1184 146.477 -22.969C148.414 -21.9669 150.024 -20.9809 150.13 -20.7828C150.872 -19.396 146.88 -17.4519 142.023 -16.7655C137.594 -16.116 135.403 -16.2819 131.678 -17.4108L126.965 -18.8391L125.951 -15.4943C124.822 -11.7694 124.875 -11.6703 129.236 -12.0918C131.717 -12.3359 132.804 -12.0894 134.725 -10.7601C136.981 -9.16368 137.011 -8.9886 135.732 -6.13905C134.025 -2.42335 131.777 -1.02972 130.466 -3.00395C129.966 -3.81945 129.316 -5.51032 129.077 -6.91093C128.552 -9.56011 127.345 -10.5069 126.792 -8.68247C126.193 -6.70598 127.298 -2.13787 129.378 2.22755C130.551 4.6579 131.129 7.40613 130.956 9.34578C130.528 12.9509 130.864 15.1279 132.119 17.8324C132.626 18.8989 132.868 22.2093 132.594 25.0312C132.372 27.9522 132.37 31.5205 132.663 33.0201C133.082 35.4712 133.02 35.9504 131.801 36.4111C131.055 36.6829 129.845 36.5654 129.101 36.0079C127.514 34.9458 125.547 36.5077 124.671 39.3964C123.128 44.4896 110.054 53.3928 103.853 53.5885C99.9345 53.646 95.3964 52.1877 93.3025 50.0591C91.2915 48.2046 90.1882 42.8072 90.6352 38.0456C91.0523 33.1089 90.5985 32.1414 87.9654 32.3395C84.1529 32.5951 82.3538 33.8758 81.3862 37.0686C80.3034 40.6415 80.7295 43.3437 83.284 49.4299C85.9215 55.7903 87.9924 57.9949 92.2495 59.285C96.1265 60.46 97.0502 62.0679 95.9674 65.6408C95.115 68.4535 92.3967 69.2067 86.3888 68.216C82.4497 67.5202 78.6602 67.6998 72.6316 68.6948C64.8522 69.9893 64.046 69.9109 59.653 68.2476C55.6401 66.6995 53.2029 64.8819 44.1269 56.4872C32.3718 45.7037 29.7526 43.6649 26.4078 42.6512C23.0629 41.6376 21.0219 42.347 19.1421 45.2634C17.2392 48.2557 17.0779 48.7879 17.3221 51.2689ZM147.804 40.8459C151.078 40.178 153.893 37.4621 156.272 32.6222C158.392 28.3675 159.475 27.5336 162.944 27.589C166.238 27.6743 171.02 28.8746 170.79 29.6348C170.56 30.395 168.012 32.7768 164.153 35.9235C160.935 38.6002 160.4 39.2683 160.608 41.3231C160.753 43.8571 159.023 50.3878 157.686 52.0579C156.617 53.394 153.881 52.5646 150.746 50.0375C148.02 47.8006 144.344 42.9514 144.62 42.0391C144.713 41.7351 146.129 41.1684 147.804 40.8459ZM245.719 156.509C248.205 154.606 252.519 154.337 257.385 155.811C263.542 157.677 265.166 159.165 264.245 162.206C263.807 163.65 262.616 165.115 261.305 165.88C259.202 167.069 259.179 167.145 260.086 169.08C261.13 171.388 261.328 171.282 256.168 171.876C254.014 172.137 250.176 173.298 247.822 174.493L243.456 176.573L243.461 172.176C243.445 169.764 243.256 166.552 243.093 165.175C242.517 161.597 243.63 158.199 245.719 156.509Z" fill="#616161" fill-opacity="0.3" style="fill:#616161;fill:color(display-p3 0.3816 0.3816 0.3816);fill-opacity:0.3;"/>
<path d="M-0.0124275 130.925C0.595724 131.11 2.88552 131.223 4.99334 131.114C10.3654 130.916 11.4734 131.916 9.88152 135.252L8.61907 137.774L13.4151 142.216C19.4712 147.703 21.5398 147.998 25.9329 144.183C30.4251 140.316 31.1969 136.4 28.124 133.393C24.846 130.242 15.6154 128.108 6.834 128.601C0.784678 128.843 -2.74911 130.096 -0.0124275 130.925Z" fill="#616161" fill-opacity="0.3" style="fill:#616161;fill:color(display-p3 0.3816 0.3816 0.3816);fill-opacity:0.3;"/>
<path d="M51.5109 17.0586C56.3645 22.6796 58.9261 23.5389 60.0089 19.966C60.7001 17.6854 57.6041 14.7551 52.9669 13.3498C48.5578 12.0136 48.1132 13.2068 51.5109 17.0586Z" fill="#616161" fill-opacity="0.3" style="fill:#616161;fill:color(display-p3 0.3816 0.3816 0.3816);fill-opacity:0.3;"/>
<path d="M23.9458 109.385C26.8138 109.507 27.9265 108.848 28.0924 106.657C28.4196 103.935 27.6663 103.955 24.7291 106.8L22.1582 109.258L23.9458 109.385Z" fill="#616161" fill-opacity="0.3" style="fill:#616161;fill:color(display-p3 0.3816 0.3816 0.3816);fill-opacity:0.3;"/>
<path d="M108.918 -5.30122C112.152 -2.82705 117.381 -0.910303 119.581 -1.3226L121.705 -1.75793L120.371 -3.65615C119.455 -5.013 117.844 -5.99899 115.108 -6.82837C108.19 -8.92484 105.221 -8.16471 108.918 -5.30122Z" fill="#616161" fill-opacity="0.3" style="fill:#616161;fill:color(display-p3 0.3816 0.3816 0.3816);fill-opacity:0.3;"/>
<path d="M105.998 21.0383C107.394 22.4574 109.26 21.7779 109.905 19.6493C110.366 18.1289 109.523 17.6244 106.973 18.0966C104.849 18.5319 104.549 19.5202 105.998 21.0383Z" fill="#616161" fill-opacity="0.3" style="fill:#616161;fill:color(display-p3 0.3816 0.3816 0.3816);fill-opacity:0.3;"/>
<path d="M88.6293 199.953C90.9974 199.26 94.1465 196.811 93.0822 196.489C91.942 196.143 87.2103 198.61 86.8877 199.675C86.7034 200.283 87.2586 200.368 88.6293 199.953Z" fill="#616161" fill-opacity="0.3" style="fill:#616161;fill:color(display-p3 0.3816 0.3816 0.3816);fill-opacity:0.3;"/>
<path d="M131.179 195.667C133.458 199.927 135.448 201.028 138.42 199.439C142.778 197.107 143.624 191.305 140.074 187.407C136.236 183.09 131.578 183.67 130.035 188.763C129.251 191.348 129.408 192.474 131.179 195.667Z" fill="#616161" fill-opacity="0.3" style="fill:#616161;fill:color(display-p3 0.3816 0.3816 0.3816);fill-opacity:0.3;"/>
<path d="M126.546 244.645C127.976 247.319 132.314 246.974 133.143 244.237C133.397 243.401 132.768 242.463 131.416 241.721C128.073 239.878 125.009 241.772 126.546 244.645Z" fill="#616161" fill-opacity="0.3" style="fill:#616161;fill:color(display-p3 0.3816 0.3816 0.3816);fill-opacity:0.3;"/>
<path d="M165.063 227.101C168.182 232.694 169.442 233.74 174.611 235.307C180.16 236.989 183.632 236.215 187.82 232.255C197.134 223.706 192.614 210.136 179.823 208.251C175.457 207.592 172.58 208.048 169.242 210.024C167.116 211.289 166.466 212.337 164.74 217.209L162.662 222.971L165.063 227.101Z" fill="#616161" fill-opacity="0.3" style="fill:#616161;fill:color(display-p3 0.3816 0.3816 0.3816);fill-opacity:0.3;"/>
<path d="M214.692 238.075C215.143 242.61 222.406 246.306 226.59 244.004C230.133 242.173 231.462 237.513 229.371 234.555C226.885 230.98 222.49 230.146 218.428 232.318C214.961 234.172 214.404 234.916 214.692 238.075Z" fill="#616161" fill-opacity="0.3" style="fill:#616161;fill:color(display-p3 0.3816 0.3816 0.3816);fill-opacity:0.3;"/>
<path d="M181.322 381.596C182.17 383.181 184.778 383.888 186.819 383.179C190.178 381.956 186.936 376.492 183.025 376.8C181.495 376.918 180.422 379.912 181.322 381.596Z" fill="#616161" fill-opacity="0.3" style="fill:#616161;fill:color(display-p3 0.3816 0.3816 0.3816);fill-opacity:0.3;"/>
<path d="M237.711 255.509C238.561 259.004 243.304 260.607 246.08 258.294C247.605 257.096 248.14 253.689 247.14 252.058C245.929 250.031 244.203 249.425 241.577 249.874C238.228 250.519 236.997 252.388 237.711 255.509Z" fill="#616161" fill-opacity="0.3" style="fill:#616161;fill:color(display-p3 0.3816 0.3816 0.3816);fill-opacity:0.3;"/>
<path d="M262.661 214.265C263.515 216.101 264.667 217.779 265.123 217.917C266.491 218.331 269.182 216.574 271.046 213.985C272.451 212.086 272.536 211.531 271.712 209.87C270.046 206.876 266.589 205.413 264.112 206.737C261.239 208.274 260.892 210.243 262.661 214.265Z" fill="#616161" fill-opacity="0.3" style="fill:#616161;fill:color(display-p3 0.3816 0.3816 0.3816);fill-opacity:0.3;"/>
<path d="M222.908 363.24C224.573 366.235 229.446 365.221 229.204 361.911C229.013 359.529 222.936 358.766 222.245 361.047C222.152 361.351 222.431 362.348 222.908 363.24Z" fill="#616161" fill-opacity="0.3" style="fill:#616161;fill:color(display-p3 0.3816 0.3816 0.3816);fill-opacity:0.3;"/>
<path d="M294.595 167.503C294.673 169.435 295.949 172.893 297.532 175.614C299.644 179.325 300.065 180.947 299.536 182.695C298.914 184.748 299.072 185.045 301.277 185.713C302.645 186.128 306.999 188.194 310.927 190.298C314.854 192.401 321.952 195.548 326.725 197.326L335.481 200.478L336.054 204.885C337.04 211.491 341.311 218.762 347.602 224.569C355.798 232.033 361.078 234.878 373.089 238.518C385.708 242.343 391.2 242.845 396.821 240.731C407.019 236.932 416.531 220.061 417.312 204.61C417.492 200.183 416.598 198.75 407.935 189.816C392.701 174.077 382.724 169.477 372.556 173.45C370.37 174.365 367.866 174.685 366.497 174.27C362.954 173.363 361.941 173.968 360.835 177.617C359.89 180.734 357.914 182.874 350.632 188.552C348.665 190.114 347.543 188.612 348.395 185.799C348.787 184.507 348.856 181.54 348.566 179.211C348.218 175.703 347.258 173.669 343.521 168.469C339.474 162.927 336.947 157.845 335.887 153.125C335.738 152.249 333.975 151.217 330.905 150.121C325.219 148.066 317.995 143.967 314.8 141.09C313.434 139.846 312.428 137.964 312.303 136.183C311.999 133.352 310.481 132.062 309.085 133.382C308.643 133.746 308.83 135.047 309.442 136.312L310.509 138.544L305.768 144.329C297.576 154.379 294.293 161.103 294.595 167.503ZM345.7 197.433C347.469 195.977 349.132 194.323 349.294 193.791C349.432 193.335 349.874 192.971 350.254 193.086C351.014 193.316 351.067 196.154 350.238 198.891C349.432 201.552 343.813 211.054 343.053 210.824C341.912 210.478 341 204.724 341.691 202.443C342.106 201.075 343.831 198.942 345.7 197.433Z" fill="#616161" fill-opacity="0.3" style="fill:#616161;fill:color(display-p3 0.3816 0.3816 0.3816);fill-opacity:0.3;"/>
<path d="M347.462 103.429C350.351 104.304 353.534 103.111 354.203 100.907C354.617 99.5382 354.193 98.7457 352.348 97.4395C348.787 94.9492 347.591 95.3339 346.37 99.3629C345.38 102.632 345.41 102.807 347.462 103.429Z" fill="#616161" fill-opacity="0.3" style="fill:#616161;fill:color(display-p3 0.3816 0.3816 0.3816);fill-opacity:0.3;"/>
<path d="M244.311 452.561C246.177 457.359 250.637 456.885 252.378 451.686C253.192 449.276 253.049 448.652 251.425 447.164C247.092 443.112 242.12 446.917 244.311 452.561Z" fill="#616161" fill-opacity="0.3" style="fill:#616161;fill:color(display-p3 0.3816 0.3816 0.3816);fill-opacity:0.3;"/>
<path d="M357.859 80.3514C358.094 80.6716 359.174 80.667 360.119 80.2893C361.787 79.7157 361.833 79.5637 360.985 77.9788C360.508 77.0872 359.688 76.5067 359.163 76.5965C357.99 76.9052 357.032 79.5198 357.859 80.3514Z" fill="#616161" fill-opacity="0.3" style="fill:#616161;fill:color(display-p3 0.3816 0.3816 0.3816);fill-opacity:0.3;"/>
<path d="M262.349 434.123C263.282 435.153 264.722 434.51 265.228 432.838C265.505 431.926 265.134 431.232 264.146 430.933C262.549 430.449 261.181 432.773 262.349 434.123Z" fill="#616161" fill-opacity="0.3" style="fill:#616161;fill:color(display-p3 0.3816 0.3816 0.3816);fill-opacity:0.3;"/>
<path d="M374.822 95.0374C375.794 101.142 380.48 109.783 385.571 114.895C390.298 119.564 397.243 122.665 403.61 123.018C409.095 123.269 415.448 120.381 419.913 115.509C421.913 113.292 423.675 111.586 423.903 111.655C424.131 111.724 426.068 115.465 428.125 119.906C430.159 124.424 431.968 128.043 432.067 127.99C432.166 127.937 432.723 124.454 433.313 120.317C434.043 114.894 435.32 110.135 437.651 103.537C440.895 94.477 440.987 94.1729 440.179 89.4458C439.114 83.6453 437.281 80.9316 428.366 72.0048C424.595 68.289 420.228 62.9813 418.569 60.2377C416.934 57.418 415.388 55.1236 415.16 55.0544C414.932 54.9853 415.024 57.4203 415.487 60.5486C416.44 67.8096 415.565 70.6984 412.43 70.9102C409.546 71.1152 402.455 68.2193 395.984 64.1003C390.562 60.6309 390.258 60.5387 390.536 61.5362C390.649 61.9854 390.575 63.8721 390.502 65.7588C390.241 69.0829 390.096 69.2879 384.92 72.9482C378.859 77.3365 377.331 79.3636 375.396 85.7492C374.459 89.1171 374.277 91.6349 374.822 95.0374Z" fill="#616161" fill-opacity="0.3" style="fill:#616161;fill:color(display-p3 0.3816 0.3816 0.3816);fill-opacity:0.3;"/>
<path d="M409.139 37.1275C410.041 43.4602 411.147 45.2893 411.592 41.357C412.014 37.5008 411.332 33.7251 409.929 32.055C408.321 30.2397 408.213 30.8709 409.139 37.1275Z" fill="#616161" fill-opacity="0.3" style="fill:#616161;fill:color(display-p3 0.3816 0.3816 0.3816);fill-opacity:0.3;"/>
<path d="M325.793 356.239C326.05 359.223 327.446 360.642 330.344 360.939C335.935 361.388 339.575 357.594 337.403 353.533C334.542 348.184 325.254 350.349 325.793 356.239Z" fill="#616161" fill-opacity="0.3" style="fill:#616161;fill:color(display-p3 0.3816 0.3816 0.3816);fill-opacity:0.3;"/>
<path d="M351.749 284.01C353.27 284.471 355.166 283.966 355.442 283.054C355.788 281.914 354.035 280.303 352.763 280.665C351.689 280.921 350.837 283.733 351.749 284.01Z" fill="#616161" fill-opacity="0.3" style="fill:#616161;fill:color(display-p3 0.3816 0.3816 0.3816);fill-opacity:0.3;"/>
<path d="M333.63 421.031C334.961 429.237 345.924 434.966 355.48 432.467C361.19 430.878 365.104 427.001 367.069 420.79C368.936 414.633 368.099 411.64 363.135 407.48C356.881 402.098 349.839 400.96 343.317 404.13C336.056 407.822 332.432 414.028 333.63 421.031Z" fill="#616161" fill-opacity="0.3" style="fill:#616161;fill:color(display-p3 0.3816 0.3816 0.3816);fill-opacity:0.3;"/>
<path d="M362.621 327.56C363.989 338.931 382.324 339.507 387.194 328.367C388.489 325.19 388.429 324.84 386.098 320.482L383.684 315.849L379.189 315.068C373.988 314.156 369.429 314.683 367.316 316.45C365.402 318.111 362.384 325.33 362.621 327.56Z" fill="#616161" fill-opacity="0.3" style="fill:#616161;fill:color(display-p3 0.3816 0.3816 0.3816);fill-opacity:0.3;"/>
<path d="M416.942 168.31C418.373 170.984 421.973 170.332 422.918 167.216C423.632 164.859 420.923 162.295 418.737 163.21C417.023 163.935 416.042 166.626 416.942 168.31Z" fill="#616161" fill-opacity="0.3" style="fill:#616161;fill:color(display-p3 0.3816 0.3816 0.3816);fill-opacity:0.3;"/>
<path d="M383.687 279.413C383.811 281.193 387.204 283.965 390.397 284.932C394.122 286.061 397.755 284.755 399.826 281.482C403.318 275.983 399.886 270.876 392.174 270.033C387.739 269.602 383.251 274.55 383.687 279.413Z" fill="#616161" fill-opacity="0.3" style="fill:#616161;fill:color(display-p3 0.3816 0.3816 0.3816);fill-opacity:0.3;"/>
<path d="M421.906 205.338C428.174 205.744 429.975 206.373 434.532 209.414C440.189 213.203 441.763 213.763 446.2 213.365C452.843 212.805 456.2 206.933 454.663 198.583C453.196 190.004 449.289 185.915 442.238 185.355C438.587 185.078 437.817 185.426 433.387 188.815C429.056 192.15 428.377 193.023 427.271 196.672C426.142 200.397 425.73 200.936 423.24 201.759C419.607 203.065 418.81 205.147 421.906 205.338Z" fill="#616161" fill-opacity="0.3" style="fill:#616161;fill:color(display-p3 0.3816 0.3816 0.3816);fill-opacity:0.3;"/>
<path d="M384.74 362.484C385.799 367.204 388.303 369.623 391.319 368.71C394.783 367.685 394.079 363.986 389.752 360.185C384.705 355.75 383.365 356.34 384.74 362.484Z" fill="#616161" fill-opacity="0.3" style="fill:#616161;fill:color(display-p3 0.3816 0.3816 0.3816);fill-opacity:0.3;"/>
<path d="M414.412 281.005C415.555 286 421.155 291.349 427.031 293.047C437.363 295.929 445.79 291.676 448.739 281.946C449.499 279.437 450.017 276.357 449.93 275.003C449.778 272.218 447.138 266.687 444.892 264.512C438.518 258.43 427.06 258.444 419.967 264.594C415.574 268.409 413.18 275.486 414.412 281.005Z" fill="#616161" fill-opacity="0.3" style="fill:#616161;fill:color(display-p3 0.3816 0.3816 0.3816);fill-opacity:0.3;"/>
<path d="M460.048 161.37C460.317 162.946 461.61 166.076 462.927 168.302C466.933 175.077 472.524 175.526 476.977 169.323C480.361 164.455 480.23 159.684 476.519 156.319C472.163 152.342 464.077 151.635 461.481 154.998C459.686 157.359 459.555 158.067 460.048 161.37Z" fill="#616161" fill-opacity="0.3" style="fill:#616161;fill:color(display-p3 0.3816 0.3816 0.3816);fill-opacity:0.3;"/>
<path d="M457.582 183.199C459.151 185.418 461.803 186.802 462.148 185.662C462.402 184.826 457.301 180.292 456.532 180.64C456.235 180.799 456.719 181.941 457.582 183.199Z" fill="#616161" fill-opacity="0.3" style="fill:#616161;fill:color(display-p3 0.3816 0.3816 0.3816);fill-opacity:0.3;"/>
<path d="M397.25 391.59C397.948 392.3 400.516 393.41 402.995 393.995L407.397 395.08L408.524 392.185C410.945 386.113 409.517 382.609 404.73 383.067C399.167 383.622 394.587 388.874 397.25 391.59Z" fill="#616161" fill-opacity="0.3" style="fill:#616161;fill:color(display-p3 0.3816 0.3816 0.3816);fill-opacity:0.3;"/>
<path d="M468.678 217.521C469.226 220.094 473.801 224.718 476.766 225.616C479.503 226.446 483.216 223.504 485.055 219.081C486.181 216.185 486.183 215.356 485.048 213.352C483.571 210.829 479.105 208.314 475.658 208.182C473.369 208.069 469.358 211.17 468.621 213.603C468.443 214.462 468.416 216.196 468.678 217.521Z" fill="#616161" fill-opacity="0.3" style="fill:#616161;fill:color(display-p3 0.3816 0.3816 0.3816);fill-opacity:0.3;"/>
<path d="M448.208 316.562C448.791 317.652 449.572 318.636 450.028 318.774C451.168 319.12 453.359 316.547 453.311 314.789C453.285 312.955 451.91 312.289 449.284 312.739C447.16 313.174 446.884 314.086 448.208 316.562Z" fill="#616161" fill-opacity="0.3" style="fill:#616161;fill:color(display-p3 0.3816 0.3816 0.3816);fill-opacity:0.3;"/>
<path d="M449.66 365.724C449.932 366.471 451.125 366.915 453.468 367.127C458.032 367.68 459.22 367.044 459.038 364.084C458.916 361.474 454.56 357.498 452.876 358.399C451.49 359.14 449.246 364.353 449.66 365.724Z" fill="#616161" fill-opacity="0.3" style="fill:#616161;fill:color(display-p3 0.3816 0.3816 0.3816);fill-opacity:0.3;"/>
<path d="M483.325 276.824C486.18 281.922 491.418 283.26 495.498 279.931C498.96 276.997 497.562 270.929 493.153 269.593C489.2 268.395 482.119 270.399 481.381 272.831C481.335 272.983 482.19 274.819 483.325 276.824Z" fill="#616161" fill-opacity="0.3" style="fill:#616161;fill:color(display-p3 0.3816 0.3816 0.3816);fill-opacity:0.3;"/>
<path d="M493.683 240.454C493.964 243.361 495.81 244.668 504.238 247.803C510.965 250.257 512.432 250.618 514.526 250.008C516.544 249.374 516.957 248.835 517.321 246.539C518.261 239.603 512.889 231.584 505.895 229.464C501.486 228.128 497.657 228.711 496.259 230.86C494.891 233.184 493.522 238.247 493.683 240.454Z" fill="#616161" fill-opacity="0.3" style="fill:#616161;fill:color(display-p3 0.3816 0.3816 0.3816);fill-opacity:0.3;"/>
<path d="M477.942 343.336C480.82 345.619 481.925 344.709 481.626 340.219L481.511 337.86L479.491 339.323C476.952 341.127 476.53 342.244 477.942 343.336Z" fill="#616161" fill-opacity="0.3" style="fill:#616161;fill:color(display-p3 0.3816 0.3816 0.3816);fill-opacity:0.3;"/>
<path d="M463.552 436.833C464.759 437.78 465.551 437.356 466.104 435.531C466.358 434.695 465.987 434.002 464.999 433.702C463.25 433.172 462.064 435.718 463.552 436.833Z" fill="#616161" fill-opacity="0.3" style="fill:#616161;fill:color(display-p3 0.3816 0.3816 0.3816);fill-opacity:0.3;"/>
<path d="M527.646 238.214C527.731 240.397 529.899 243.378 531.799 243.954C534.384 244.738 537.422 243.75 539.521 241.48C541.398 239.393 541.56 238.861 541.154 236.912C539.553 229.87 527.148 231.091 527.646 238.214Z" fill="#616161" fill-opacity="0.3" style="fill:#616161;fill:color(display-p3 0.3816 0.3816 0.3816);fill-opacity:0.3;"/>
<path d="M553.699 286.448C554.187 288.671 557.426 289.486 559.089 287.832C560.874 286.049 560.034 284.715 556.825 284.075C553.943 283.451 553.081 284.102 553.699 286.448Z" fill="#616161" fill-opacity="0.3" style="fill:#616161;fill:color(display-p3 0.3816 0.3816 0.3816);fill-opacity:0.3;"/>
<path d="M556.11 311.083C556.939 316.563 558.793 320.03 563.354 324.151C568.097 328.494 571.776 329.775 577.204 328.846C589.238 326.932 599.791 315.937 598.798 306.34C598.05 299.225 593.599 293.643 586.099 290.457C581.851 288.588 581.669 288.367 582.427 286.688C582.826 285.647 583.906 282.903 584.719 280.493C586.046 276.663 586.049 275.833 584.844 274.057C582.828 271.122 580.227 270.666 576.364 272.732C572.402 274.852 571.789 276.326 572.45 282.087L572.918 286.296L569.16 288.56C560.731 293.642 555.02 303.448 556.11 311.083Z" fill="#616161" fill-opacity="0.3" style="fill:#616161;fill:color(display-p3 0.3816 0.3816 0.3816);fill-opacity:0.3;"/>
<path d="M573.997 405.978C575.944 406.402 576.69 406.131 577.036 404.99C577.404 403.774 576.964 403.309 575.216 402.779C573.392 402.226 572.744 402.445 572.178 403.767C571.466 405.294 571.648 405.515 573.997 405.978Z" fill="#616161" fill-opacity="0.3" style="fill:#616161;fill:color(display-p3 0.3816 0.3816 0.3816);fill-opacity:0.3;"/>
<path d="M622.491 384.819C622.954 387.947 623.507 388.861 626.946 391.481C632.595 395.849 641.807 399.138 648.289 399.111C654.346 399.12 658.315 397.252 663.1 392.145C666.175 388.844 666.626 387.902 668.165 381.728C672.352 364.903 666.669 356.54 652.232 357.892C645.717 358.574 641.642 360.244 634.316 365.245C625.238 371.375 621.538 377.558 622.491 384.819Z" fill="#616161" fill-opacity="0.3" style="fill:#616161;fill:color(display-p3 0.3816 0.3816 0.3816);fill-opacity:0.3;"/>
<path d="M677.242 362.733C679.067 366.025 683.752 369.188 687.456 369.563C689.852 369.874 694.118 367.847 694.625 366.175C694.925 365.187 691.644 362.864 686.507 360.644C677.86 356.861 674.487 357.582 677.242 362.733Z" fill="#616161" fill-opacity="0.3" style="fill:#616161;fill:color(display-p3 0.3816 0.3816 0.3816);fill-opacity:0.3;"/>
<path d="M691.572 385.834C694.869 387.829 698.08 384.901 695.447 382.36C694.438 381.307 693.731 381.176 692.268 381.895C689.739 383.12 689.476 384.535 691.572 385.834Z" fill="#616161" fill-opacity="0.3" style="fill:#616161;fill:color(display-p3 0.3816 0.3816 0.3816);fill-opacity:0.3;"/>
<path d="M724.046 393.434C725.228 395.287 727.313 395.254 729.653 393.557C733.199 390.896 731.543 387.323 727.166 388.072C724.487 388.422 722.736 391.46 724.046 393.434Z" fill="#616161" fill-opacity="0.3" style="fill:#616161;fill:color(display-p3 0.3816 0.3816 0.3816);fill-opacity:0.3;"/>
<path d="M740.149 395.077C741.701 397.623 745.007 399.04 746.555 397.766C747.119 397.273 747.854 395.669 748.216 394.202C748.748 391.624 748.642 391.426 745.747 390.3C743.664 389.503 742.128 389.369 741.038 389.952C738.836 391.193 738.642 392.38 740.149 395.077Z" fill="#616161" fill-opacity="0.3" style="fill:#616161;fill:color(display-p3 0.3816 0.3816 0.3816);fill-opacity:0.3;"/>
<path d="M788.923 415.171C789.773 424.143 797.402 435.669 803.788 437.604C805.156 438.018 808.625 438.074 811.532 437.793C816.19 437.212 817.356 436.653 822.221 432.649C826.865 428.827 827.911 427.567 828.81 424.603C829.409 422.626 831.429 418.424 833.401 415.204C836.313 410.525 836.926 409.051 836.649 407.224C836.419 405.246 836.085 404.978 832.807 404.566C829.651 404.024 828.861 403.619 826.624 400.866C824.388 398.113 823.263 397.441 817.251 395.369C805.986 391.458 799.951 392.202 794.258 398.112C789.962 402.703 788.227 408.154 788.923 415.171Z" fill="#616161" fill-opacity="0.3" style="fill:#616161;fill:color(display-p3 0.3816 0.3816 0.3816);fill-opacity:0.3;"/>
<path d="M849.529 407.725C850.741 409.752 855.484 411.355 856.963 410.309C860.835 407.665 860.11 403.212 855.625 401.853C851.063 400.47 847.318 404.066 849.529 407.725Z" fill="#616161" fill-opacity="0.3" style="fill:#616161;fill:color(display-p3 0.3816 0.3816 0.3816);fill-opacity:0.3;"/>
<path d="M871.773 403.344C873.379 403.249 874.468 402.666 874.745 401.754C875.321 399.854 872.584 399.024 870.944 400.602C868.868 402.795 869.011 403.42 871.773 403.344Z" fill="#616161" fill-opacity="0.3" style="fill:#616161;fill:color(display-p3 0.3816 0.3816 0.3816);fill-opacity:0.3;"/>
</g>
<defs>
<clipPath id="clip0_75_21">
<rect width="1473" height="750" fill="white" style="fill:white;fill:white;fill-opacity:1;"/>
</clipPath>
</defs>
</svg>
