<svg width="1380" height="632" viewBox="0 0 1380 632" fill="none" xmlns="http://www.w3.org/2000/svg">
<path d="M251 212.185C255.5 216.185 258 219.602 258.5 222.435C258.833 223.769 258.25 224.519 256.75 224.685C250.75 225.519 244.667 225.435 238.5 224.435C226.333 224.435 215.833 224.602 207 224.935C174 226.269 146.333 231.685 124 241.185C110.833 246.685 100.417 253.935 92.75 262.935C89.0833 271.769 85.25 280.352 81.25 288.685C79.75 291.852 73.8333 290.102 63.5 283.435C59.6667 280.935 56.25 278.269 53.25 275.435C49.25 271.602 47.4167 268.852 47.75 267.185C48.9167 257.185 52.75 248.185 59.25 240.185C62.0833 233.019 64.6667 226.019 67 219.185C77 190.519 84 161.352 88 131.685C90.3333 113.685 91.4167 99.5187 91.25 89.1853C91.0833 82.1853 90.3333 75.9353 89 70.4353C88.3333 67.602 87.5 65.1853 86.5 63.1853C86 62.1853 85.3333 60.9353 84.5 59.4353C84.3333 59.2687 84.25 59.1853 84.25 59.1853C83.9167 58.6853 83.5 58.102 83 57.4353C80.3333 54.2687 79.5 51.9353 80.5 50.4353C81.3333 49.2687 83.75 49.2687 87.75 50.4353C96.75 53.102 104.583 58.602 111.25 66.9353C120.417 78.2687 125.083 92.9353 125.25 110.935C125.25 122.102 123.917 136.935 121.25 155.435C119.083 170.935 116.167 186.185 112.5 201.185C112 203.685 111.333 206.519 110.5 209.685C119.167 207.185 128.917 205.019 139.75 203.185C153.75 201.019 169.833 199.769 188 199.435C186.667 198.269 185.333 197.102 184 195.935C175.667 188.269 169 179.352 164 169.185C159.167 159.019 156.5 148.519 156 137.685C156 136.519 156.333 135.769 157 135.435C157.667 134.935 158.5 134.769 159.5 134.935C160.667 135.102 161.833 135.352 163 135.685C164.167 136.019 165.417 136.519 166.75 137.185C168.083 137.852 169.083 138.352 169.75 138.685C170.583 139.019 171.333 139.352 172 139.685C176.667 142.352 180.833 145.519 184.5 149.185C188.167 152.852 190 155.602 190 157.435C190.333 165.935 191.833 173.602 194.5 180.435C195.833 183.769 197.583 187.185 199.75 190.685C199.75 190.852 199.833 191.019 200 191.185C200.167 191.519 200.333 191.769 200.5 191.935L201.75 193.935C201.917 194.102 202.167 194.435 202.5 194.935C203 195.435 203.25 195.769 203.25 195.935C203.583 196.269 203.833 196.519 204 196.685L204.75 197.185C205.417 197.519 205.917 197.769 206.25 197.935C206.75 198.102 207 198.185 207 198.185C207.167 198.185 207.333 198.269 207.5 198.435C207.833 198.435 208.167 198.519 208.5 198.685C208.833 198.685 209.083 198.685 209.25 198.685C209.417 198.685 209.667 198.769 210 198.935C210.333 198.935 210.5 199.019 210.5 199.185C210.833 199.185 211.5 199.269 212.5 199.435C216 199.435 221.417 199.519 228.75 199.685C230.917 199.685 234.833 201.269 240.5 204.435C244 206.435 247.5 209.019 251 212.185ZM204.75 197.435C204.75 197.435 204.667 197.352 204.5 197.185C204.667 197.185 204.75 197.269 204.75 197.435ZM204.75 197.185C204.917 197.352 205.417 197.602 206.25 197.935C206.083 197.769 205.833 197.685 205.5 197.685C205.167 197.519 204.917 197.352 204.75 197.185ZM203.5 196.435C203 196.102 202.667 195.935 202.5 195.935C202.667 195.935 203 196.102 203.5 196.435ZM271.846 34.9353C272.679 33.7687 275.096 33.7687 279.096 34.9353C282.429 35.9353 286.762 38.2687 292.096 41.9353C301.762 48.4353 306.179 53.9353 305.346 58.4353C302.179 73.102 299.679 87.9353 297.846 102.935C291.512 155.435 292.346 208.019 300.346 260.685C301.012 264.852 296.096 264.352 285.596 259.185L284.346 258.435C279.846 255.769 275.679 252.602 271.846 248.935C268.512 245.602 266.679 242.852 266.346 240.685C264.012 225.185 262.262 209.935 261.096 194.935C260.596 187.769 260.262 180.435 260.096 172.935C256.596 171.769 252.596 169.852 248.096 167.185C242.929 164.185 238.262 160.852 234.096 157.185C230.096 153.352 226.929 149.185 224.596 144.685C219.262 135.019 220.262 123.435 227.596 109.935C228.596 108.269 235.929 95.852 249.596 72.6853C250.596 71.0187 258.012 58.4353 271.846 34.9353ZM240.096 149.185L240.346 149.435C240.179 149.269 240.096 149.185 240.096 149.185ZM255.096 153.435C256.596 154.269 258.179 155.269 259.846 156.435C259.679 148.935 259.762 141.685 260.096 134.685C257.929 139.019 256.429 143.019 255.596 146.685C255.096 148.852 254.929 151.102 255.096 153.435ZM521.393 122.435C514.393 132.769 502.809 141.435 486.643 148.435C472.643 154.435 457.393 158.769 440.893 161.435C417.893 165.269 394.393 165.269 370.393 161.435C373.893 189.269 379.476 216.602 387.143 243.435C387.476 244.602 387.143 245.352 386.143 245.685C385.143 246.019 383.976 246.102 382.643 245.935C380.143 245.769 376.309 244.269 371.143 241.435C360.809 235.435 354.809 229.519 353.143 223.685C346.643 200.685 341.643 177.269 338.143 153.435C332.143 150.602 326.559 146.352 321.393 140.685C318.726 137.685 317.309 135.435 317.143 133.935C317.143 132.769 317.559 132.019 318.393 131.685C319.393 131.185 320.393 131.102 321.393 131.435C326.059 132.435 330.726 133.185 335.393 133.685C333.893 120.352 332.893 106.935 332.393 93.4353C331.059 95.2687 329.976 97.2687 329.143 99.4353C327.976 103.102 321.309 100.852 309.143 92.6853C304.476 89.5187 300.893 86.2687 298.393 82.9353C296.226 80.102 295.393 77.852 295.893 76.1853C297.893 70.352 303.226 64.9353 311.893 59.9353C317.559 56.7687 324.476 53.4353 332.643 49.9353C332.809 47.4353 332.893 45.1853 332.893 43.1853C333.059 41.852 333.643 41.0187 334.643 40.6853C335.643 40.1853 336.893 40.1853 338.393 40.6853C340.059 41.1853 341.559 41.7687 342.893 42.4353C344.226 42.9353 345.559 43.5187 346.893 44.1853C359.559 39.6853 372.559 36.2687 385.893 33.9353C427.726 26.2687 460.809 28.9353 485.143 41.9353C506.476 53.2687 520.143 66.5187 526.143 81.6853C528.809 88.5187 529.726 95.4353 528.893 102.435C528.059 109.435 525.559 116.102 521.393 122.435ZM490.893 59.4353C490.559 59.2687 490.393 59.2687 490.393 59.4353L492.643 60.1853H492.393C491.559 59.852 491.059 59.602 490.893 59.4353ZM492.643 60.1853C492.643 60.1853 492.726 60.1853 492.893 60.1853V60.4353C492.726 60.2687 492.643 60.1853 492.643 60.1853ZM446.143 127.685C466.809 120.685 481.143 110.602 489.143 97.4353C492.476 91.9353 494.476 86.2687 495.143 80.4353C495.976 74.602 495.143 68.852 492.643 63.1853C491.809 61.5187 491.309 60.5187 491.143 60.1853C490.809 59.852 490.476 59.4353 490.143 58.9353C487.809 58.102 485.559 57.5187 483.393 57.1853C472.559 54.852 458.643 54.352 441.643 55.6853C427.309 56.852 413.059 59.1853 398.893 62.6853C387.893 65.5187 377.059 69.102 366.393 73.4353C365.726 92.602 366.059 111.685 367.393 130.685C371.893 129.519 376.309 128.019 380.643 126.185C389.976 122.352 398.476 117.102 406.143 110.435C409.476 107.602 412.059 105.269 413.893 103.435C415.893 101.435 417.976 98.6853 420.143 95.1853C422.309 91.6853 423.309 88.352 423.143 85.1853C422.976 83.6853 423.559 82.852 424.893 82.6853C426.393 82.352 428.143 82.602 430.143 83.4353C432.309 84.2687 434.059 85.0187 435.393 85.6853C436.726 86.352 437.893 86.9353 438.893 87.4353C443.559 90.102 447.726 93.2687 451.393 96.9353C455.059 100.602 456.976 103.352 457.143 105.185C457.476 112.352 453.809 119.852 446.143 127.685ZM721.5 176.685C721.833 177.019 722.167 177.435 722.5 177.935C723 178.435 723.583 179.102 724.25 179.935C724.917 180.602 725.5 181.352 726 182.185C726.5 182.852 726.833 183.602 727 184.435C727.333 185.102 727.333 185.769 727 186.435C726.833 186.935 726.333 187.352 725.5 187.685C709.833 192.185 694.583 197.185 679.75 202.685C633.75 219.685 590.083 241.269 548.75 267.435C544.25 270.769 538 274.769 530 279.435C529.5 279.769 528.833 280.019 528 280.185C527.333 280.519 526.583 280.602 525.75 280.435C524.917 280.269 524.167 280.102 523.5 279.935C522.833 279.935 521.917 279.685 520.75 279.185C519.75 278.685 519 278.269 518.5 277.935C518 277.769 517.167 277.352 516 276.685C514.833 276.019 514.083 275.519 513.75 275.185C513.583 275.019 512.917 274.519 511.75 273.685C510.583 273.019 510 272.685 510 272.685C505.333 269.519 501.75 266.269 499.25 262.935C496.417 259.269 495.583 257.019 496.75 256.185C503.25 251.685 510 247.269 517 242.935C527 235.269 533.917 226.935 537.75 217.935C541.583 208.935 542.083 200.769 539.25 193.435C538.917 192.769 538.5 191.935 538 190.935C529.167 187.269 522 182.019 516.5 175.185C513.833 172.019 513 169.685 514 168.185C515 166.852 517.417 166.852 521.25 168.185C539.25 174.685 553.667 184.602 564.5 197.935C568 202.269 570.667 206.769 572.5 211.435C596.333 199.102 620.833 188.269 646 178.935C644.833 178.935 640.25 179.352 632.25 180.185C615.417 182.019 601.917 182.269 591.75 180.935C576.75 178.935 561.917 173.102 547.25 163.435C532.25 153.602 522.083 142.852 516.75 131.185C511.75 120.185 511.25 108.602 515.25 96.4353C518.583 85.9353 524.417 76.2687 532.75 67.4353C541.25 58.602 550.75 52.102 561.25 47.9353C578.583 40.7687 597.167 42.352 617 52.6853C620.5 41.6853 625.917 31.9353 633.25 23.4353C634.25 22.2687 636.667 22.1853 640.5 23.1853C643.833 24.1853 648.083 26.5187 653.25 30.1853C657.917 33.352 661.5 36.5187 664 39.6853C666.667 43.1853 667.5 45.5187 666.5 46.6853C656.167 59.0187 649.75 72.9353 647.25 88.4353C648.25 90.102 648.5 91.602 648 92.9353C647.667 94.2687 647 96.1853 646 98.6853C645.333 100.685 642.167 100.435 636.5 97.9353C630.833 95.2687 625.333 91.7687 620 87.4353C614.833 82.9353 612.333 79.4353 612.5 76.9353C612.5 74.2687 612.75 71.5187 613.25 68.6853C611.25 68.6853 609.25 68.7687 607.25 68.9353C596.75 69.9353 586.833 73.9353 577.5 80.9353C572.333 84.9353 567.5 89.4353 563 94.4353C558.667 99.2687 554.917 104.935 551.75 111.435C548.583 117.769 546.833 124.102 546.5 130.435C546.167 135.602 546.667 140.185 548 144.185C548.5 145.352 549.583 147.435 551.25 150.435C551.25 150.602 551.25 150.769 551.25 150.935C551.417 150.935 551.5 151.019 551.5 151.185C551.667 151.352 551.833 151.602 552 151.935C552.167 152.102 552.333 152.269 552.5 152.435C552.667 152.435 552.917 152.519 553.25 152.685C553.583 152.852 553.833 153.019 554 153.185C554.333 153.185 554.5 153.185 554.5 153.185C556.5 153.852 558.167 154.352 559.5 154.685C564.833 155.685 570.667 156.269 577 156.435C583.333 156.602 588.917 156.435 593.75 155.935C598.583 155.435 604.5 154.852 611.5 154.185C618.5 153.519 624.25 153.019 628.75 152.685C653.25 151.519 677.333 155.102 701 163.435C708.167 165.935 715 170.352 721.5 176.685ZM553 152.685C552.833 152.685 552.667 152.602 552.5 152.435C552.5 152.435 552.583 152.519 552.75 152.685C552.917 152.685 553 152.685 553 152.685ZM553 152.935C553.167 153.269 553.333 153.435 553.5 153.435C553.5 153.435 553.417 153.435 553.25 153.435C553.083 153.269 553 153.185 553 153.185V152.935ZM541 191.935H540.75C540.917 191.935 541 191.935 541 191.935ZM540.5 191.935H541C540.833 191.935 540.75 191.935 540.75 191.935H540.5ZM589.816 307.185C588.316 298.852 586.566 290.685 584.566 282.685C583.733 279.019 587.816 279.185 596.816 283.185C598.483 283.852 599.733 284.435 600.566 284.935C611.066 290.935 617.066 296.769 618.566 302.435C625.733 301.102 632.816 299.602 639.816 297.935C658.483 293.435 673.15 289.102 683.816 284.935C685.816 284.102 687.733 283.185 689.566 282.185C691.566 281.185 693.483 280.102 695.316 278.935C697.316 277.602 699.066 276.185 700.566 274.685C702.233 273.185 703.65 271.602 704.816 269.935C706.15 268.102 707.15 266.185 707.816 264.185C708.483 262.019 708.9 259.769 709.066 257.435C709.066 256.435 709.4 255.685 710.066 255.185C710.733 254.685 711.65 254.602 712.816 254.935C713.983 255.102 715.066 255.352 716.066 255.685C717.066 255.852 718.233 256.269 719.566 256.935C721.066 257.602 722.15 258.102 722.816 258.435C723.483 258.769 724.15 259.185 724.816 259.685C729.483 262.352 733.65 265.519 737.316 269.185C741.15 273.019 743.066 275.769 743.066 277.435C742.4 290.769 734.066 301.102 718.066 308.435C708.733 312.602 693.733 317.185 673.066 322.185C657.233 326.185 641.066 329.352 624.566 331.685C626.4 342.019 627.816 352.352 628.816 362.685C628.983 365.352 629.233 368.269 629.566 371.435C632.066 371.269 634.9 371.102 638.066 370.935C641.4 370.769 644.65 370.602 647.816 370.435C651.15 370.269 654.066 370.185 656.566 370.185C662.4 369.852 669.983 373.435 679.316 380.935C682.483 383.602 685.233 386.769 687.566 390.435C689.4 393.435 689.15 395.019 686.816 395.185C674.316 395.852 655.566 396.769 630.566 397.935C630.733 422.435 628.733 446.685 624.566 470.685C622.9 480.352 620.983 489.435 618.816 497.935C616.483 507.935 613.9 515.019 611.066 519.185C607.733 524.019 603.566 527.102 598.566 528.435C593.733 529.935 588.816 529.852 583.816 528.185C578.816 526.685 573.983 524.435 569.316 521.435C564.816 518.602 560.816 515.352 557.316 511.685C551.816 505.852 550.4 502.269 553.066 500.935C553.733 500.602 554.733 500.519 556.066 500.685C558.566 501.019 561.816 502.269 565.816 504.435C567.15 504.102 568.4 503.685 569.566 503.185C572.233 502.185 574.733 500.102 577.066 496.935C580.066 492.769 582.733 485.769 585.066 475.935C591.233 451.102 594.983 425.685 596.316 399.685C595.15 399.685 593.4 399.769 591.066 399.935C588.733 399.935 586.983 400.019 585.816 400.185C579.983 400.519 572.316 396.852 562.816 389.185C560.983 387.685 558.566 385.019 555.566 381.185C552.566 377.185 552.566 375.102 555.566 374.935L596.566 372.935C596.4 360.269 595.566 347.602 594.066 334.935C588.066 335.269 582.15 335.602 576.316 335.935C570.316 336.102 562.733 332.435 553.566 324.935C549.233 321.435 546.4 318.352 545.066 315.685C543.566 312.519 543.9 310.852 546.066 310.685C560.733 310.185 575.316 309.019 589.816 307.185ZM578.566 513.435C577.066 512.102 575.566 510.852 574.066 509.685C575.733 511.019 577.233 512.269 578.566 513.435ZM810.875 487.435C796.042 489.935 779.458 482.935 761.125 466.435C751.625 457.769 744.125 447.352 738.625 435.185C733.292 423.019 730.458 410.352 730.125 397.185C729.792 379.185 734.208 357.769 743.375 332.935C743.208 332.935 742.792 333.019 742.125 333.185C741.625 333.185 741.292 333.185 741.125 333.185C735.458 333.685 727.792 330.019 718.125 322.185C717.292 321.519 716.292 320.685 715.125 319.685C714.125 318.685 712.792 317.269 711.125 315.435C709.625 313.602 708.875 312.102 708.875 310.935C708.875 309.769 709.458 308.852 710.625 308.185C711.125 308.019 711.708 307.852 712.375 307.685C713.042 307.352 713.542 307.185 713.875 307.185C715.042 306.685 716.542 306.769 718.375 307.435C762.708 303.269 805.792 295.019 847.625 282.685C849.292 282.185 852.542 283.019 857.375 285.185C860.542 286.685 864.208 288.935 868.375 291.935C870.708 293.769 872.458 295.185 873.625 296.185C874.792 297.019 876.125 298.602 877.625 300.935C879.292 303.102 879.875 305.102 879.375 306.935C871.708 345.935 865.208 375.185 859.875 394.685C851.208 426.185 842.208 450.935 832.875 468.935C827.208 479.769 819.875 485.935 810.875 487.435ZM780.875 466.935C780.875 466.935 780.958 467.019 781.125 467.185C781.292 467.352 781.375 467.435 781.375 467.435C781.208 467.269 781.042 467.102 780.875 466.935ZM786.125 460.685C788.958 459.352 791.792 456.935 794.625 453.435C795.458 452.269 796.292 451.102 797.125 449.935C797.958 448.602 798.708 447.269 799.375 445.935C800.208 444.435 800.875 443.102 801.375 441.935C802.042 440.769 802.708 439.352 803.375 437.685C804.042 436.019 804.542 434.685 804.875 433.685C805.375 432.685 805.958 431.269 806.625 429.435C807.458 427.602 808.042 426.269 808.375 425.435C819.708 397.769 829.958 361.935 839.125 317.935C816.792 323.102 794.125 327.102 771.125 329.935C774.292 332.435 776.875 334.935 778.875 337.435C781.208 340.435 782.042 342.769 781.375 344.435C775.375 359.269 770.792 372.769 767.625 384.935C764.625 396.935 763.542 408.935 764.375 420.935C765.042 432.269 767.292 442.185 771.125 450.685C772.458 453.685 773.875 456.519 775.375 459.185C776.042 460.352 776.708 461.352 777.375 462.185C777.375 462.185 777.458 462.352 777.625 462.685C777.958 462.685 778.458 462.685 779.125 462.685C781.625 462.352 783.958 461.685 786.125 460.685ZM1080.74 300.685C1098.57 315.685 1106.49 332.269 1104.49 350.435C1103.65 358.602 1101.15 366.352 1096.99 373.685C1092.99 380.852 1087.82 387.185 1081.49 392.685C1075.32 398.019 1068.65 402.685 1061.49 406.685C1054.32 410.685 1046.82 413.935 1038.99 416.435C1011.32 424.935 982.988 423.935 953.988 413.435C959.655 425.269 965.072 435.269 970.238 443.435C973.072 448.102 976.238 452.602 979.738 456.935C980.405 457.602 981.655 459.019 983.488 461.185C983.488 461.352 983.738 461.602 984.238 461.935C984.238 461.935 984.072 461.852 983.738 461.685C983.572 461.519 983.405 461.352 983.238 461.185C983.738 461.519 984.072 461.852 984.238 462.185H984.488C984.488 462.185 984.488 462.269 984.488 462.435C984.655 462.435 984.738 462.519 984.738 462.685C985.905 463.852 987.072 464.935 988.238 465.935C988.238 466.102 988.405 466.352 988.738 466.685C989.072 467.019 989.322 467.269 989.488 467.435L989.738 467.685C989.572 467.352 989.155 466.935 988.488 466.435C988.822 466.769 989.988 467.769 991.988 469.435C992.155 469.435 992.322 469.519 992.488 469.685C992.488 469.685 992.655 469.769 992.988 469.935C993.488 470.269 993.822 470.519 993.988 470.685C994.155 470.852 994.655 471.185 995.488 471.685C996.322 472.185 996.738 472.435 996.738 472.435C997.072 472.602 997.322 472.685 997.488 472.685C997.488 472.852 997.572 472.935 997.738 472.935C998.072 473.102 998.322 473.185 998.488 473.185C998.822 473.352 999.155 473.519 999.488 473.685C999.988 473.852 1000.4 474.102 1000.74 474.435C1001.24 474.602 1001.65 474.769 1001.99 474.935C1000.82 474.435 1000.9 474.435 1002.24 474.935C1002.9 475.102 1003.4 475.269 1003.74 475.435C1004.9 475.769 1006.15 476.185 1007.49 476.685C1007.65 476.685 1007.9 476.769 1008.24 476.935C1008.74 476.935 1009.07 477.019 1009.24 477.185C1009.9 477.352 1010.32 477.435 1010.49 477.435C1011.99 477.769 1013.49 478.019 1014.99 478.185C1017.99 478.685 1020.74 478.935 1023.24 478.935C1028.74 479.102 1034.4 478.352 1040.24 476.685C1051.74 473.519 1061.65 467.352 1069.99 458.185C1071.15 457.019 1073.57 457.019 1077.24 458.185C1080.57 459.185 1084.9 461.435 1090.24 464.935C1094.74 468.102 1098.32 471.352 1100.99 474.685C1103.65 478.019 1104.49 480.269 1103.49 481.435C1091.99 493.935 1078.15 501.269 1061.99 503.435C1045.99 505.602 1029.82 503.019 1013.49 495.685C997.322 488.352 982.238 478.269 968.238 465.435C963.905 461.435 959.655 457.019 955.488 452.185C958.488 466.852 962.572 480.935 967.738 494.435C971.572 498.269 973.405 501.019 973.238 502.685C973.238 503.185 973.238 503.685 973.238 504.185C973.238 504.852 973.155 505.435 972.988 505.935C972.988 506.602 972.988 507.185 972.988 507.685C972.988 509.019 972.405 509.852 971.238 510.185C970.072 510.519 968.572 510.352 966.738 509.685C965.072 509.185 963.738 508.685 962.738 508.185C961.738 507.685 960.572 507.185 959.238 506.685C955.572 504.685 951.905 502.185 948.238 499.185C943.738 495.519 940.988 492.435 939.988 489.935C933.988 476.435 929.155 462.852 925.488 449.185C918.988 424.852 916.155 400.185 916.988 375.185C917.155 367.185 917.572 360.102 918.238 353.935C906.905 365.602 897.488 378.352 889.988 392.185C889.322 393.519 886.905 393.602 882.738 392.435C879.405 391.435 875.155 389.102 869.988 385.435C865.322 382.269 861.738 379.102 859.238 375.935C856.738 372.769 855.905 370.435 856.738 368.935C872.905 338.935 896.822 315.185 928.488 297.685C957.822 281.352 988.238 273.935 1019.74 275.435C1041.9 276.435 1062.24 284.852 1080.74 300.685ZM1064.24 302.935C1064.24 302.769 1064.15 302.685 1063.99 302.685C1064.15 302.685 1064.24 302.769 1064.24 302.935ZM1067.74 305.185L1066.99 304.685C1067.32 305.019 1067.57 305.185 1067.74 305.185ZM1064.24 302.685C1063.9 302.352 1063.65 302.185 1063.49 302.185C1063.49 302.185 1063.49 302.269 1063.49 302.435C1063.65 302.435 1063.82 302.519 1063.99 302.685C1063.99 302.685 1064.07 302.685 1064.24 302.685ZM1018.99 387.435C1025.65 384.769 1032.07 381.352 1038.24 377.185C1044.4 373.019 1049.99 368.269 1054.99 362.935C1060.15 357.435 1064.15 351.185 1066.99 344.185C1069.82 337.185 1071.07 330.019 1070.74 322.685C1070.57 318.519 1069.9 314.685 1068.74 311.185C1068.4 310.185 1067.9 309.019 1067.24 307.685C1067.24 307.519 1066.99 307.102 1066.49 306.435L1065.49 304.685L1065.99 304.935C1065.65 304.602 1065.32 304.269 1064.99 303.935C1064.32 303.602 1063.9 303.435 1063.74 303.435C1062.74 303.102 1061.9 302.852 1061.24 302.685C1061.07 302.685 1060.65 302.602 1059.99 302.435C1059.82 302.435 1059.74 302.352 1059.74 302.185C1058.74 302.019 1057.74 301.852 1056.74 301.685C1052.9 301.019 1048.74 300.602 1044.24 300.435C1038.07 300.269 1030.82 300.685 1022.49 301.685C1001.15 304.352 980.738 310.935 961.238 321.435C962.405 322.602 963.405 323.769 964.238 324.935C966.738 328.102 967.572 330.352 966.738 331.685C959.405 342.019 954.738 355.185 952.738 371.185C951.738 378.685 951.072 386.435 950.738 394.435C957.905 395.935 964.988 396.685 971.988 396.685C987.822 397.019 1003.49 393.935 1018.99 387.435ZM1309.96 311.185C1314.46 314.352 1318.04 317.602 1320.71 320.935C1323.04 323.935 1323.88 326.185 1323.21 327.685C1316.21 340.685 1310.38 354.019 1305.71 367.685C1303.54 374.185 1301.63 380.935 1299.96 387.935C1300.63 388.769 1301.29 389.519 1301.96 390.185C1304.63 393.519 1305.38 395.769 1304.21 396.935C1301.88 399.435 1299.21 402.352 1296.21 405.685C1294.21 417.685 1293.13 429.685 1292.96 441.685C1292.63 456.685 1293.38 469.519 1295.21 480.185C1296.04 484.185 1296.96 487.685 1297.96 490.685C1299.13 491.185 1300.29 491.769 1301.46 492.435C1306.13 495.102 1310.29 498.269 1313.96 501.935C1317.63 505.769 1319.46 508.519 1319.46 510.185C1319.46 510.519 1319.46 510.852 1319.46 511.185C1319.46 511.685 1319.46 512.102 1319.46 512.435C1319.46 512.935 1319.46 513.352 1319.46 513.685C1319.46 516.352 1316.96 516.935 1311.96 515.435C1299.96 511.602 1288.88 504.602 1278.71 494.435C1272.04 487.602 1267.29 480.102 1264.46 471.935C1262.46 466.102 1260.96 459.435 1259.96 451.935C1258.29 454.602 1257.46 455.935 1257.46 455.935C1251.13 465.435 1245.21 475.185 1239.71 485.185C1239.04 486.519 1238.13 488.435 1236.96 490.935C1235.79 493.435 1234.71 495.519 1233.71 497.185C1232.88 499.019 1231.79 500.935 1230.46 502.935C1229.13 504.935 1227.63 506.602 1225.96 507.935C1224.29 509.269 1222.54 510.352 1220.71 511.185C1215.04 513.185 1207.46 511.352 1197.96 505.685C1187.63 499.685 1180.54 493.102 1176.71 485.935C1175.71 484.102 1174.88 482.185 1174.21 480.185C1173.54 478.019 1172.96 475.685 1172.46 473.185C1172.13 470.685 1171.88 468.685 1171.71 467.185C1171.54 465.519 1171.29 463.102 1170.96 459.935C1170.79 456.602 1170.63 454.519 1170.46 453.685C1165.96 404.685 1168.96 355.519 1179.46 306.185C1179.96 304.019 1182.71 304.185 1187.71 306.685C1192.88 309.019 1196.79 311.102 1199.46 312.935C1209.29 319.602 1213.71 325.102 1212.71 329.435C1207.54 353.602 1204.38 378.269 1203.21 403.435C1202.04 424.435 1202.29 445.519 1203.96 466.685C1219.96 436.352 1239.63 408.269 1262.96 382.435C1267.79 354.602 1276.71 328.602 1289.71 304.435C1290.54 303.102 1293.04 303.102 1297.21 304.435C1300.38 305.269 1304.63 307.519 1309.96 311.185Z" fill="#434343" fill-opacity="0.87"/>
<path d="M251 212.185C255.5 216.185 258 219.602 258.5 222.435C258.833 223.769 258.25 224.519 256.75 224.685C250.75 225.519 244.667 225.435 238.5 224.435C226.333 224.435 215.833 224.602 207 224.935C174 226.269 146.333 231.685 124 241.185C110.833 246.685 100.417 253.935 92.75 262.935C89.0833 271.769 85.25 280.352 81.25 288.685C79.75 291.852 73.8333 290.102 63.5 283.435C59.6667 280.935 56.25 278.269 53.25 275.435C49.25 271.602 47.4167 268.852 47.75 267.185C48.9167 257.185 52.75 248.185 59.25 240.185C62.0833 233.019 64.6667 226.019 67 219.185C77 190.519 84 161.352 88 131.685C90.3333 113.685 91.4167 99.5187 91.25 89.1853C91.0833 82.1853 90.3333 75.9353 89 70.4353C88.3333 67.602 87.5 65.1853 86.5 63.1853C86 62.1853 85.3333 60.9353 84.5 59.4353C84.3333 59.2687 84.25 59.1853 84.25 59.1853C83.9167 58.6853 83.5 58.102 83 57.4353C80.3333 54.2687 79.5 51.9353 80.5 50.4353C81.3333 49.2687 83.75 49.2687 87.75 50.4353C96.75 53.102 104.583 58.602 111.25 66.9353C120.417 78.2687 125.083 92.9353 125.25 110.935C125.25 122.102 123.917 136.935 121.25 155.435C119.083 170.935 116.167 186.185 112.5 201.185C112 203.685 111.333 206.519 110.5 209.685C119.167 207.185 128.917 205.019 139.75 203.185C153.75 201.019 169.833 199.769 188 199.435C186.667 198.269 185.333 197.102 184 195.935C175.667 188.269 169 179.352 164 169.185C159.167 159.019 156.5 148.519 156 137.685C156 136.519 156.333 135.769 157 135.435C157.667 134.935 158.5 134.769 159.5 134.935C160.667 135.102 161.833 135.352 163 135.685C164.167 136.019 165.417 136.519 166.75 137.185C168.083 137.852 169.083 138.352 169.75 138.685C170.583 139.019 171.333 139.352 172 139.685C176.667 142.352 180.833 145.519 184.5 149.185C188.167 152.852 190 155.602 190 157.435C190.333 165.935 191.833 173.602 194.5 180.435C195.833 183.769 197.583 187.185 199.75 190.685C199.75 190.852 199.833 191.019 200 191.185C200.167 191.519 200.333 191.769 200.5 191.935L201.75 193.935C201.917 194.102 202.167 194.435 202.5 194.935C203 195.435 203.25 195.769 203.25 195.935C203.583 196.269 203.833 196.519 204 196.685L204.75 197.185C205.417 197.519 205.917 197.769 206.25 197.935C206.75 198.102 207 198.185 207 198.185C207.167 198.185 207.333 198.269 207.5 198.435C207.833 198.435 208.167 198.519 208.5 198.685C208.833 198.685 209.083 198.685 209.25 198.685C209.417 198.685 209.667 198.769 210 198.935C210.333 198.935 210.5 199.019 210.5 199.185C210.833 199.185 211.5 199.269 212.5 199.435C216 199.435 221.417 199.519 228.75 199.685C230.917 199.685 234.833 201.269 240.5 204.435C244 206.435 247.5 209.019 251 212.185ZM204.75 197.435C204.75 197.435 204.667 197.352 204.5 197.185C204.667 197.185 204.75 197.269 204.75 197.435ZM204.75 197.185C204.917 197.352 205.417 197.602 206.25 197.935C206.083 197.769 205.833 197.685 205.5 197.685C205.167 197.519 204.917 197.352 204.75 197.185ZM203.5 196.435C203 196.102 202.667 195.935 202.5 195.935C202.667 195.935 203 196.102 203.5 196.435ZM271.846 34.9353C272.679 33.7687 275.096 33.7687 279.096 34.9353C282.429 35.9353 286.762 38.2687 292.096 41.9353C301.762 48.4353 306.179 53.9353 305.346 58.4353C302.179 73.102 299.679 87.9353 297.846 102.935C291.512 155.435 292.346 208.019 300.346 260.685C301.012 264.852 296.096 264.352 285.596 259.185L284.346 258.435C279.846 255.769 275.679 252.602 271.846 248.935C268.512 245.602 266.679 242.852 266.346 240.685C264.012 225.185 262.262 209.935 261.096 194.935C260.596 187.769 260.262 180.435 260.096 172.935C256.596 171.769 252.596 169.852 248.096 167.185C242.929 164.185 238.262 160.852 234.096 157.185C230.096 153.352 226.929 149.185 224.596 144.685C219.262 135.019 220.262 123.435 227.596 109.935C228.596 108.269 235.929 95.852 249.596 72.6853C250.596 71.0187 258.012 58.4353 271.846 34.9353ZM240.096 149.185L240.346 149.435C240.179 149.269 240.096 149.185 240.096 149.185ZM255.096 153.435C256.596 154.269 258.179 155.269 259.846 156.435C259.679 148.935 259.762 141.685 260.096 134.685C257.929 139.019 256.429 143.019 255.596 146.685C255.096 148.852 254.929 151.102 255.096 153.435ZM521.393 122.435C514.393 132.769 502.809 141.435 486.643 148.435C472.643 154.435 457.393 158.769 440.893 161.435C417.893 165.269 394.393 165.269 370.393 161.435C373.893 189.269 379.476 216.602 387.143 243.435C387.476 244.602 387.143 245.352 386.143 245.685C385.143 246.019 383.976 246.102 382.643 245.935C380.143 245.769 376.309 244.269 371.143 241.435C360.809 235.435 354.809 229.519 353.143 223.685C346.643 200.685 341.643 177.269 338.143 153.435C332.143 150.602 326.559 146.352 321.393 140.685C318.726 137.685 317.309 135.435 317.143 133.935C317.143 132.769 317.559 132.019 318.393 131.685C319.393 131.185 320.393 131.102 321.393 131.435C326.059 132.435 330.726 133.185 335.393 133.685C333.893 120.352 332.893 106.935 332.393 93.4353C331.059 95.2687 329.976 97.2687 329.143 99.4353C327.976 103.102 321.309 100.852 309.143 92.6853C304.476 89.5187 300.893 86.2687 298.393 82.9353C296.226 80.102 295.393 77.852 295.893 76.1853C297.893 70.352 303.226 64.9353 311.893 59.9353C317.559 56.7687 324.476 53.4353 332.643 49.9353C332.809 47.4353 332.893 45.1853 332.893 43.1853C333.059 41.852 333.643 41.0187 334.643 40.6853C335.643 40.1853 336.893 40.1853 338.393 40.6853C340.059 41.1853 341.559 41.7687 342.893 42.4353C344.226 42.9353 345.559 43.5187 346.893 44.1853C359.559 39.6853 372.559 36.2687 385.893 33.9353C427.726 26.2687 460.809 28.9353 485.143 41.9353C506.476 53.2687 520.143 66.5187 526.143 81.6853C528.809 88.5187 529.726 95.4353 528.893 102.435C528.059 109.435 525.559 116.102 521.393 122.435ZM490.893 59.4353C490.559 59.2687 490.393 59.2687 490.393 59.4353L492.643 60.1853H492.393C491.559 59.852 491.059 59.602 490.893 59.4353ZM492.643 60.1853C492.643 60.1853 492.726 60.1853 492.893 60.1853V60.4353C492.726 60.2687 492.643 60.1853 492.643 60.1853ZM446.143 127.685C466.809 120.685 481.143 110.602 489.143 97.4353C492.476 91.9353 494.476 86.2687 495.143 80.4353C495.976 74.602 495.143 68.852 492.643 63.1853C491.809 61.5187 491.309 60.5187 491.143 60.1853C490.809 59.852 490.476 59.4353 490.143 58.9353C487.809 58.102 485.559 57.5187 483.393 57.1853C472.559 54.852 458.643 54.352 441.643 55.6853C427.309 56.852 413.059 59.1853 398.893 62.6853C387.893 65.5187 377.059 69.102 366.393 73.4353C365.726 92.602 366.059 111.685 367.393 130.685C371.893 129.519 376.309 128.019 380.643 126.185C389.976 122.352 398.476 117.102 406.143 110.435C409.476 107.602 412.059 105.269 413.893 103.435C415.893 101.435 417.976 98.6853 420.143 95.1853C422.309 91.6853 423.309 88.352 423.143 85.1853C422.976 83.6853 423.559 82.852 424.893 82.6853C426.393 82.352 428.143 82.602 430.143 83.4353C432.309 84.2687 434.059 85.0187 435.393 85.6853C436.726 86.352 437.893 86.9353 438.893 87.4353C443.559 90.102 447.726 93.2687 451.393 96.9353C455.059 100.602 456.976 103.352 457.143 105.185C457.476 112.352 453.809 119.852 446.143 127.685ZM721.5 176.685C721.833 177.019 722.167 177.435 722.5 177.935C723 178.435 723.583 179.102 724.25 179.935C724.917 180.602 725.5 181.352 726 182.185C726.5 182.852 726.833 183.602 727 184.435C727.333 185.102 727.333 185.769 727 186.435C726.833 186.935 726.333 187.352 725.5 187.685C709.833 192.185 694.583 197.185 679.75 202.685C633.75 219.685 590.083 241.269 548.75 267.435C544.25 270.769 538 274.769 530 279.435C529.5 279.769 528.833 280.019 528 280.185C527.333 280.519 526.583 280.602 525.75 280.435C524.917 280.269 524.167 280.102 523.5 279.935C522.833 279.935 521.917 279.685 520.75 279.185C519.75 278.685 519 278.269 518.5 277.935C518 277.769 517.167 277.352 516 276.685C514.833 276.019 514.083 275.519 513.75 275.185C513.583 275.019 512.917 274.519 511.75 273.685C510.583 273.019 510 272.685 510 272.685C505.333 269.519 501.75 266.269 499.25 262.935C496.417 259.269 495.583 257.019 496.75 256.185C503.25 251.685 510 247.269 517 242.935C527 235.269 533.917 226.935 537.75 217.935C541.583 208.935 542.083 200.769 539.25 193.435C538.917 192.769 538.5 191.935 538 190.935C529.167 187.269 522 182.019 516.5 175.185C513.833 172.019 513 169.685 514 168.185C515 166.852 517.417 166.852 521.25 168.185C539.25 174.685 553.667 184.602 564.5 197.935C568 202.269 570.667 206.769 572.5 211.435C596.333 199.102 620.833 188.269 646 178.935C644.833 178.935 640.25 179.352 632.25 180.185C615.417 182.019 601.917 182.269 591.75 180.935C576.75 178.935 561.917 173.102 547.25 163.435C532.25 153.602 522.083 142.852 516.75 131.185C511.75 120.185 511.25 108.602 515.25 96.4353C518.583 85.9353 524.417 76.2687 532.75 67.4353C541.25 58.602 550.75 52.102 561.25 47.9353C578.583 40.7687 597.167 42.352 617 52.6853C620.5 41.6853 625.917 31.9353 633.25 23.4353C634.25 22.2687 636.667 22.1853 640.5 23.1853C643.833 24.1853 648.083 26.5187 653.25 30.1853C657.917 33.352 661.5 36.5187 664 39.6853C666.667 43.1853 667.5 45.5187 666.5 46.6853C656.167 59.0187 649.75 72.9353 647.25 88.4353C648.25 90.102 648.5 91.602 648 92.9353C647.667 94.2687 647 96.1853 646 98.6853C645.333 100.685 642.167 100.435 636.5 97.9353C630.833 95.2687 625.333 91.7687 620 87.4353C614.833 82.9353 612.333 79.4353 612.5 76.9353C612.5 74.2687 612.75 71.5187 613.25 68.6853C611.25 68.6853 609.25 68.7687 607.25 68.9353C596.75 69.9353 586.833 73.9353 577.5 80.9353C572.333 84.9353 567.5 89.4353 563 94.4353C558.667 99.2687 554.917 104.935 551.75 111.435C548.583 117.769 546.833 124.102 546.5 130.435C546.167 135.602 546.667 140.185 548 144.185C548.5 145.352 549.583 147.435 551.25 150.435C551.25 150.602 551.25 150.769 551.25 150.935C551.417 150.935 551.5 151.019 551.5 151.185C551.667 151.352 551.833 151.602 552 151.935C552.167 152.102 552.333 152.269 552.5 152.435C552.667 152.435 552.917 152.519 553.25 152.685C553.583 152.852 553.833 153.019 554 153.185C554.333 153.185 554.5 153.185 554.5 153.185C556.5 153.852 558.167 154.352 559.5 154.685C564.833 155.685 570.667 156.269 577 156.435C583.333 156.602 588.917 156.435 593.75 155.935C598.583 155.435 604.5 154.852 611.5 154.185C618.5 153.519 624.25 153.019 628.75 152.685C653.25 151.519 677.333 155.102 701 163.435C708.167 165.935 715 170.352 721.5 176.685ZM553 152.685C552.833 152.685 552.667 152.602 552.5 152.435C552.5 152.435 552.583 152.519 552.75 152.685C552.917 152.685 553 152.685 553 152.685ZM553 152.935C553.167 153.269 553.333 153.435 553.5 153.435C553.5 153.435 553.417 153.435 553.25 153.435C553.083 153.269 553 153.185 553 153.185V152.935ZM541 191.935H540.75C540.917 191.935 541 191.935 541 191.935ZM540.5 191.935H541C540.833 191.935 540.75 191.935 540.75 191.935H540.5ZM589.816 307.185C588.316 298.852 586.566 290.685 584.566 282.685C583.733 279.019 587.816 279.185 596.816 283.185C598.483 283.852 599.733 284.435 600.566 284.935C611.066 290.935 617.066 296.769 618.566 302.435C625.733 301.102 632.816 299.602 639.816 297.935C658.483 293.435 673.15 289.102 683.816 284.935C685.816 284.102 687.733 283.185 689.566 282.185C691.566 281.185 693.483 280.102 695.316 278.935C697.316 277.602 699.066 276.185 700.566 274.685C702.233 273.185 703.65 271.602 704.816 269.935C706.15 268.102 707.15 266.185 707.816 264.185C708.483 262.019 708.9 259.769 709.066 257.435C709.066 256.435 709.4 255.685 710.066 255.185C710.733 254.685 711.65 254.602 712.816 254.935C713.983 255.102 715.066 255.352 716.066 255.685C717.066 255.852 718.233 256.269 719.566 256.935C721.066 257.602 722.15 258.102 722.816 258.435C723.483 258.769 724.15 259.185 724.816 259.685C729.483 262.352 733.65 265.519 737.316 269.185C741.15 273.019 743.066 275.769 743.066 277.435C742.4 290.769 734.066 301.102 718.066 308.435C708.733 312.602 693.733 317.185 673.066 322.185C657.233 326.185 641.066 329.352 624.566 331.685C626.4 342.019 627.816 352.352 628.816 362.685C628.983 365.352 629.233 368.269 629.566 371.435C632.066 371.269 634.9 371.102 638.066 370.935C641.4 370.769 644.65 370.602 647.816 370.435C651.15 370.269 654.066 370.185 656.566 370.185C662.4 369.852 669.983 373.435 679.316 380.935C682.483 383.602 685.233 386.769 687.566 390.435C689.4 393.435 689.15 395.019 686.816 395.185C674.316 395.852 655.566 396.769 630.566 397.935C630.733 422.435 628.733 446.685 624.566 470.685C622.9 480.352 620.983 489.435 618.816 497.935C616.483 507.935 613.9 515.019 611.066 519.185C607.733 524.019 603.566 527.102 598.566 528.435C593.733 529.935 588.816 529.852 583.816 528.185C578.816 526.685 573.983 524.435 569.316 521.435C564.816 518.602 560.816 515.352 557.316 511.685C551.816 505.852 550.4 502.269 553.066 500.935C553.733 500.602 554.733 500.519 556.066 500.685C558.566 501.019 561.816 502.269 565.816 504.435C567.15 504.102 568.4 503.685 569.566 503.185C572.233 502.185 574.733 500.102 577.066 496.935C580.066 492.769 582.733 485.769 585.066 475.935C591.233 451.102 594.983 425.685 596.316 399.685C595.15 399.685 593.4 399.769 591.066 399.935C588.733 399.935 586.983 400.019 585.816 400.185C579.983 400.519 572.316 396.852 562.816 389.185C560.983 387.685 558.566 385.019 555.566 381.185C552.566 377.185 552.566 375.102 555.566 374.935L596.566 372.935C596.4 360.269 595.566 347.602 594.066 334.935C588.066 335.269 582.15 335.602 576.316 335.935C570.316 336.102 562.733 332.435 553.566 324.935C549.233 321.435 546.4 318.352 545.066 315.685C543.566 312.519 543.9 310.852 546.066 310.685C560.733 310.185 575.316 309.019 589.816 307.185ZM578.566 513.435C577.066 512.102 575.566 510.852 574.066 509.685C575.733 511.019 577.233 512.269 578.566 513.435ZM810.875 487.435C796.042 489.935 779.458 482.935 761.125 466.435C751.625 457.769 744.125 447.352 738.625 435.185C733.292 423.019 730.458 410.352 730.125 397.185C729.792 379.185 734.208 357.769 743.375 332.935C743.208 332.935 742.792 333.019 742.125 333.185C741.625 333.185 741.292 333.185 741.125 333.185C735.458 333.685 727.792 330.019 718.125 322.185C717.292 321.519 716.292 320.685 715.125 319.685C714.125 318.685 712.792 317.269 711.125 315.435C709.625 313.602 708.875 312.102 708.875 310.935C708.875 309.769 709.458 308.852 710.625 308.185C711.125 308.019 711.708 307.852 712.375 307.685C713.042 307.352 713.542 307.185 713.875 307.185C715.042 306.685 716.542 306.769 718.375 307.435C762.708 303.269 805.792 295.019 847.625 282.685C849.292 282.185 852.542 283.019 857.375 285.185C860.542 286.685 864.208 288.935 868.375 291.935C870.708 293.769 872.458 295.185 873.625 296.185C874.792 297.019 876.125 298.602 877.625 300.935C879.292 303.102 879.875 305.102 879.375 306.935C871.708 345.935 865.208 375.185 859.875 394.685C851.208 426.185 842.208 450.935 832.875 468.935C827.208 479.769 819.875 485.935 810.875 487.435ZM780.875 466.935C780.875 466.935 780.958 467.019 781.125 467.185C781.292 467.352 781.375 467.435 781.375 467.435C781.208 467.269 781.042 467.102 780.875 466.935ZM786.125 460.685C788.958 459.352 791.792 456.935 794.625 453.435C795.458 452.269 796.292 451.102 797.125 449.935C797.958 448.602 798.708 447.269 799.375 445.935C800.208 444.435 800.875 443.102 801.375 441.935C802.042 440.769 802.708 439.352 803.375 437.685C804.042 436.019 804.542 434.685 804.875 433.685C805.375 432.685 805.958 431.269 806.625 429.435C807.458 427.602 808.042 426.269 808.375 425.435C819.708 397.769 829.958 361.935 839.125 317.935C816.792 323.102 794.125 327.102 771.125 329.935C774.292 332.435 776.875 334.935 778.875 337.435C781.208 340.435 782.042 342.769 781.375 344.435C775.375 359.269 770.792 372.769 767.625 384.935C764.625 396.935 763.542 408.935 764.375 420.935C765.042 432.269 767.292 442.185 771.125 450.685C772.458 453.685 773.875 456.519 775.375 459.185C776.042 460.352 776.708 461.352 777.375 462.185C777.375 462.185 777.458 462.352 777.625 462.685C777.958 462.685 778.458 462.685 779.125 462.685C781.625 462.352 783.958 461.685 786.125 460.685ZM1080.74 300.685C1098.57 315.685 1106.49 332.269 1104.49 350.435C1103.65 358.602 1101.15 366.352 1096.99 373.685C1092.99 380.852 1087.82 387.185 1081.49 392.685C1075.32 398.019 1068.65 402.685 1061.49 406.685C1054.32 410.685 1046.82 413.935 1038.99 416.435C1011.32 424.935 982.988 423.935 953.988 413.435C959.655 425.269 965.072 435.269 970.238 443.435C973.072 448.102 976.238 452.602 979.738 456.935C980.405 457.602 981.655 459.019 983.488 461.185C983.488 461.352 983.738 461.602 984.238 461.935C984.238 461.935 984.072 461.852 983.738 461.685C983.572 461.519 983.405 461.352 983.238 461.185C983.738 461.519 984.072 461.852 984.238 462.185H984.488C984.488 462.185 984.488 462.269 984.488 462.435C984.655 462.435 984.738 462.519 984.738 462.685C985.905 463.852 987.072 464.935 988.238 465.935C988.238 466.102 988.405 466.352 988.738 466.685C989.072 467.019 989.322 467.269 989.488 467.435L989.738 467.685C989.572 467.352 989.155 466.935 988.488 466.435C988.822 466.769 989.988 467.769 991.988 469.435C992.155 469.435 992.322 469.519 992.488 469.685C992.488 469.685 992.655 469.769 992.988 469.935C993.488 470.269 993.822 470.519 993.988 470.685C994.155 470.852 994.655 471.185 995.488 471.685C996.322 472.185 996.738 472.435 996.738 472.435C997.072 472.602 997.322 472.685 997.488 472.685C997.488 472.852 997.572 472.935 997.738 472.935C998.072 473.102 998.322 473.185 998.488 473.185C998.822 473.352 999.155 473.519 999.488 473.685C999.988 473.852 1000.4 474.102 1000.74 474.435C1001.24 474.602 1001.65 474.769 1001.99 474.935C1000.82 474.435 1000.9 474.435 1002.24 474.935C1002.9 475.102 1003.4 475.269 1003.74 475.435C1004.9 475.769 1006.15 476.185 1007.49 476.685C1007.65 476.685 1007.9 476.769 1008.24 476.935C1008.74 476.935 1009.07 477.019 1009.24 477.185C1009.9 477.352 1010.32 477.435 1010.49 477.435C1011.99 477.769 1013.49 478.019 1014.99 478.185C1017.99 478.685 1020.74 478.935 1023.24 478.935C1028.74 479.102 1034.4 478.352 1040.24 476.685C1051.74 473.519 1061.65 467.352 1069.99 458.185C1071.15 457.019 1073.57 457.019 1077.24 458.185C1080.57 459.185 1084.9 461.435 1090.24 464.935C1094.74 468.102 1098.32 471.352 1100.99 474.685C1103.65 478.019 1104.49 480.269 1103.49 481.435C1091.99 493.935 1078.15 501.269 1061.99 503.435C1045.99 505.602 1029.82 503.019 1013.49 495.685C997.322 488.352 982.238 478.269 968.238 465.435C963.905 461.435 959.655 457.019 955.488 452.185C958.488 466.852 962.572 480.935 967.738 494.435C971.572 498.269 973.405 501.019 973.238 502.685C973.238 503.185 973.238 503.685 973.238 504.185C973.238 504.852 973.155 505.435 972.988 505.935C972.988 506.602 972.988 507.185 972.988 507.685C972.988 509.019 972.405 509.852 971.238 510.185C970.072 510.519 968.572 510.352 966.738 509.685C965.072 509.185 963.738 508.685 962.738 508.185C961.738 507.685 960.572 507.185 959.238 506.685C955.572 504.685 951.905 502.185 948.238 499.185C943.738 495.519 940.988 492.435 939.988 489.935C933.988 476.435 929.155 462.852 925.488 449.185C918.988 424.852 916.155 400.185 916.988 375.185C917.155 367.185 917.572 360.102 918.238 353.935C906.905 365.602 897.488 378.352 889.988 392.185C889.322 393.519 886.905 393.602 882.738 392.435C879.405 391.435 875.155 389.102 869.988 385.435C865.322 382.269 861.738 379.102 859.238 375.935C856.738 372.769 855.905 370.435 856.738 368.935C872.905 338.935 896.822 315.185 928.488 297.685C957.822 281.352 988.238 273.935 1019.74 275.435C1041.9 276.435 1062.24 284.852 1080.74 300.685ZM1064.24 302.935C1064.24 302.769 1064.15 302.685 1063.99 302.685C1064.15 302.685 1064.24 302.769 1064.24 302.935ZM1067.74 305.185L1066.99 304.685C1067.32 305.019 1067.57 305.185 1067.74 305.185ZM1064.24 302.685C1063.9 302.352 1063.65 302.185 1063.49 302.185C1063.49 302.185 1063.49 302.269 1063.49 302.435C1063.65 302.435 1063.82 302.519 1063.99 302.685C1063.99 302.685 1064.07 302.685 1064.24 302.685ZM1018.99 387.435C1025.65 384.769 1032.07 381.352 1038.24 377.185C1044.4 373.019 1049.99 368.269 1054.99 362.935C1060.15 357.435 1064.15 351.185 1066.99 344.185C1069.82 337.185 1071.07 330.019 1070.74 322.685C1070.57 318.519 1069.9 314.685 1068.74 311.185C1068.4 310.185 1067.9 309.019 1067.24 307.685C1067.24 307.519 1066.99 307.102 1066.49 306.435L1065.49 304.685L1065.99 304.935C1065.65 304.602 1065.32 304.269 1064.99 303.935C1064.32 303.602 1063.9 303.435 1063.74 303.435C1062.74 303.102 1061.9 302.852 1061.24 302.685C1061.07 302.685 1060.65 302.602 1059.99 302.435C1059.82 302.435 1059.74 302.352 1059.74 302.185C1058.74 302.019 1057.74 301.852 1056.74 301.685C1052.9 301.019 1048.74 300.602 1044.24 300.435C1038.07 300.269 1030.82 300.685 1022.49 301.685C1001.15 304.352 980.738 310.935 961.238 321.435C962.405 322.602 963.405 323.769 964.238 324.935C966.738 328.102 967.572 330.352 966.738 331.685C959.405 342.019 954.738 355.185 952.738 371.185C951.738 378.685 951.072 386.435 950.738 394.435C957.905 395.935 964.988 396.685 971.988 396.685C987.822 397.019 1003.49 393.935 1018.99 387.435ZM1309.96 311.185C1314.46 314.352 1318.04 317.602 1320.71 320.935C1323.04 323.935 1323.88 326.185 1323.21 327.685C1316.21 340.685 1310.38 354.019 1305.71 367.685C1303.54 374.185 1301.63 380.935 1299.96 387.935C1300.63 388.769 1301.29 389.519 1301.96 390.185C1304.63 393.519 1305.38 395.769 1304.21 396.935C1301.88 399.435 1299.21 402.352 1296.21 405.685C1294.21 417.685 1293.13 429.685 1292.96 441.685C1292.63 456.685 1293.38 469.519 1295.21 480.185C1296.04 484.185 1296.96 487.685 1297.96 490.685C1299.13 491.185 1300.29 491.769 1301.46 492.435C1306.13 495.102 1310.29 498.269 1313.96 501.935C1317.63 505.769 1319.46 508.519 1319.46 510.185C1319.46 510.519 1319.46 510.852 1319.46 511.185C1319.46 511.685 1319.46 512.102 1319.46 512.435C1319.46 512.935 1319.46 513.352 1319.46 513.685C1319.46 516.352 1316.96 516.935 1311.96 515.435C1299.96 511.602 1288.88 504.602 1278.71 494.435C1272.04 487.602 1267.29 480.102 1264.46 471.935C1262.46 466.102 1260.96 459.435 1259.96 451.935C1258.29 454.602 1257.46 455.935 1257.46 455.935C1251.13 465.435 1245.21 475.185 1239.71 485.185C1239.04 486.519 1238.13 488.435 1236.96 490.935C1235.79 493.435 1234.71 495.519 1233.71 497.185C1232.88 499.019 1231.79 500.935 1230.46 502.935C1229.13 504.935 1227.63 506.602 1225.96 507.935C1224.29 509.269 1222.54 510.352 1220.71 511.185C1215.04 513.185 1207.46 511.352 1197.96 505.685C1187.63 499.685 1180.54 493.102 1176.71 485.935C1175.71 484.102 1174.88 482.185 1174.21 480.185C1173.54 478.019 1172.96 475.685 1172.46 473.185C1172.13 470.685 1171.88 468.685 1171.71 467.185C1171.54 465.519 1171.29 463.102 1170.96 459.935C1170.79 456.602 1170.63 454.519 1170.46 453.685C1165.96 404.685 1168.96 355.519 1179.46 306.185C1179.96 304.019 1182.71 304.185 1187.71 306.685C1192.88 309.019 1196.79 311.102 1199.46 312.935C1209.29 319.602 1213.71 325.102 1212.71 329.435C1207.54 353.602 1204.38 378.269 1203.21 403.435C1202.04 424.435 1202.29 445.519 1203.96 466.685C1219.96 436.352 1239.63 408.269 1262.96 382.435C1267.79 354.602 1276.71 328.602 1289.71 304.435C1290.54 303.102 1293.04 303.102 1297.21 304.435C1300.38 305.269 1304.63 307.519 1309.96 311.185Z" fill="#C1C1C1" fill-opacity="0.87"/>
<path d="M217 249.073C221.5 253.073 224 256.49 224.5 259.323C224.833 260.657 224.25 261.407 222.75 261.573C216.75 262.407 210.667 262.323 204.5 261.323C192.333 261.323 181.833 261.49 173 261.823C140 263.157 112.333 268.573 90 278.073C76.8333 283.573 66.4167 290.823 58.75 299.823C55.0833 308.657 51.25 317.24 47.25 325.573C45.75 328.74 39.8333 326.99 29.5 320.323C25.6667 317.823 22.25 315.157 19.25 312.323C15.25 308.49 13.4167 305.74 13.75 304.073C14.9167 294.073 18.75 285.073 25.25 277.073C28.0833 269.907 30.6667 262.907 33 256.073C43 227.407 50 198.24 54 168.573C56.3333 150.573 57.4167 136.407 57.25 126.073C57.0833 119.073 56.3333 112.823 55 107.323C54.3333 104.49 53.5 102.073 52.5 100.073C52 99.0734 51.3333 97.8234 50.5 96.3234C50.3333 96.1567 50.25 96.0734 50.25 96.0734C49.9167 95.5734 49.5 94.99 49 94.3234C46.3333 91.1567 45.5 88.8234 46.5 87.3234C47.3333 86.1567 49.75 86.1567 53.75 87.3234C62.75 89.99 70.5833 95.49 77.25 103.823C86.4167 115.157 91.0833 129.823 91.25 147.823C91.25 158.99 89.9167 173.823 87.25 192.323C85.0833 207.823 82.1667 223.073 78.5 238.073C78 240.573 77.3333 243.407 76.5 246.573C85.1667 244.073 94.9167 241.907 105.75 240.073C119.75 237.907 135.833 236.657 154 236.323C152.667 235.157 151.333 233.99 150 232.823C141.667 225.157 135 216.24 130 206.073C125.167 195.907 122.5 185.407 122 174.573C122 173.407 122.333 172.657 123 172.323C123.667 171.823 124.5 171.657 125.5 171.823C126.667 171.99 127.833 172.24 129 172.573C130.167 172.907 131.417 173.407 132.75 174.073C134.083 174.74 135.083 175.24 135.75 175.573C136.583 175.907 137.333 176.24 138 176.573C142.667 179.24 146.833 182.407 150.5 186.073C154.167 189.74 156 192.49 156 194.323C156.333 202.823 157.833 210.49 160.5 217.323C161.833 220.657 163.583 224.073 165.75 227.573C165.75 227.74 165.833 227.907 166 228.073C166.167 228.407 166.333 228.657 166.5 228.823L167.75 230.823C167.917 230.99 168.167 231.323 168.5 231.823C169 232.323 169.25 232.657 169.25 232.823C169.583 233.157 169.833 233.407 170 233.573L170.75 234.073C171.417 234.407 171.917 234.657 172.25 234.823C172.75 234.99 173 235.073 173 235.073C173.167 235.073 173.333 235.157 173.5 235.323C173.833 235.323 174.167 235.407 174.5 235.573C174.833 235.573 175.083 235.573 175.25 235.573C175.417 235.573 175.667 235.657 176 235.823C176.333 235.823 176.5 235.907 176.5 236.073C176.833 236.073 177.5 236.157 178.5 236.323C182 236.323 187.417 236.407 194.75 236.573C196.917 236.573 200.833 238.157 206.5 241.323C210 243.323 213.5 245.907 217 249.073ZM170.75 234.323C170.75 234.323 170.667 234.24 170.5 234.073C170.667 234.073 170.75 234.157 170.75 234.323ZM170.75 234.073C170.917 234.24 171.417 234.49 172.25 234.823C172.083 234.657 171.833 234.573 171.5 234.573C171.167 234.407 170.917 234.24 170.75 234.073ZM169.5 233.323C169 232.99 168.667 232.823 168.5 232.823C168.667 232.823 169 232.99 169.5 233.323ZM237.846 71.8234C238.679 70.6567 241.096 70.6567 245.096 71.8234C248.429 72.8234 252.762 75.1567 258.096 78.8234C267.762 85.3234 272.179 90.8234 271.346 95.3234C268.179 109.99 265.679 124.823 263.846 139.823C257.512 192.323 258.346 244.907 266.346 297.573C267.012 301.74 262.096 301.24 251.596 296.073L250.346 295.323C245.846 292.657 241.679 289.49 237.846 285.823C234.512 282.49 232.679 279.74 232.346 277.573C230.012 262.073 228.262 246.823 227.096 231.823C226.596 224.657 226.262 217.323 226.096 209.823C222.596 208.657 218.596 206.74 214.096 204.073C208.929 201.073 204.262 197.74 200.096 194.073C196.096 190.24 192.929 186.073 190.596 181.573C185.262 171.907 186.262 160.323 193.596 146.823C194.596 145.157 201.929 132.74 215.596 109.573C216.596 107.907 224.012 95.3234 237.846 71.8234ZM206.096 186.073L206.346 186.323C206.179 186.157 206.096 186.073 206.096 186.073ZM221.096 190.323C222.596 191.157 224.179 192.157 225.846 193.323C225.679 185.823 225.762 178.573 226.096 171.573C223.929 175.907 222.429 179.907 221.596 183.573C221.096 185.74 220.929 187.99 221.096 190.323ZM487.393 159.323C480.393 169.657 468.809 178.323 452.643 185.323C438.643 191.323 423.393 195.657 406.893 198.323C383.893 202.157 360.393 202.157 336.393 198.323C339.893 226.157 345.476 253.49 353.143 280.323C353.476 281.49 353.143 282.24 352.143 282.573C351.143 282.907 349.976 282.99 348.643 282.823C346.143 282.657 342.309 281.157 337.143 278.323C326.809 272.323 320.809 266.407 319.143 260.573C312.643 237.573 307.643 214.157 304.143 190.323C298.143 187.49 292.559 183.24 287.393 177.573C284.726 174.573 283.309 172.323 283.143 170.823C283.143 169.657 283.559 168.907 284.393 168.573C285.393 168.073 286.393 167.99 287.393 168.323C292.059 169.323 296.726 170.073 301.393 170.573C299.893 157.24 298.893 143.823 298.393 130.323C297.059 132.157 295.976 134.157 295.143 136.323C293.976 139.99 287.309 137.74 275.143 129.573C270.476 126.407 266.893 123.157 264.393 119.823C262.226 116.99 261.393 114.74 261.893 113.073C263.893 107.24 269.226 101.823 277.893 96.8234C283.559 93.6567 290.476 90.3234 298.643 86.8234C298.809 84.3234 298.893 82.0734 298.893 80.0734C299.059 78.74 299.643 77.9067 300.643 77.5734C301.643 77.0734 302.893 77.0734 304.393 77.5734C306.059 78.0734 307.559 78.6567 308.893 79.3234C310.226 79.8234 311.559 80.4067 312.893 81.0734C325.559 76.5734 338.559 73.1567 351.893 70.8234C393.726 63.1567 426.809 65.8234 451.143 78.8234C472.476 90.1567 486.143 103.407 492.143 118.573C494.809 125.407 495.726 132.323 494.893 139.323C494.059 146.323 491.559 152.99 487.393 159.323ZM456.893 96.3234C456.559 96.1567 456.393 96.1567 456.393 96.3234L458.643 97.0734H458.393C457.559 96.74 457.059 96.49 456.893 96.3234ZM458.643 97.0734C458.643 97.0734 458.726 97.0734 458.893 97.0734V97.3234C458.726 97.1567 458.643 97.0734 458.643 97.0734ZM412.143 164.573C432.809 157.573 447.143 147.49 455.143 134.323C458.476 128.823 460.476 123.157 461.143 117.323C461.976 111.49 461.143 105.74 458.643 100.073C457.809 98.4067 457.309 97.4067 457.143 97.0734C456.809 96.74 456.476 96.3234 456.143 95.8234C453.809 94.99 451.559 94.4067 449.393 94.0734C438.559 91.74 424.643 91.24 407.643 92.5734C393.309 93.74 379.059 96.0734 364.893 99.5734C353.893 102.407 343.059 105.99 332.393 110.323C331.726 129.49 332.059 148.573 333.393 167.573C337.893 166.407 342.309 164.907 346.643 163.073C355.976 159.24 364.476 153.99 372.143 147.323C375.476 144.49 378.059 142.157 379.893 140.323C381.893 138.323 383.976 135.573 386.143 132.073C388.309 128.573 389.309 125.24 389.143 122.073C388.976 120.573 389.559 119.74 390.893 119.573C392.393 119.24 394.143 119.49 396.143 120.323C398.309 121.157 400.059 121.907 401.393 122.573C402.726 123.24 403.893 123.823 404.893 124.323C409.559 126.99 413.726 130.157 417.393 133.823C421.059 137.49 422.976 140.24 423.143 142.073C423.476 149.24 419.809 156.74 412.143 164.573ZM687.5 213.573C687.833 213.907 688.167 214.323 688.5 214.823C689 215.323 689.583 215.99 690.25 216.823C690.917 217.49 691.5 218.24 692 219.073C692.5 219.74 692.833 220.49 693 221.323C693.333 221.99 693.333 222.657 693 223.323C692.833 223.823 692.333 224.24 691.5 224.573C675.833 229.073 660.583 234.073 645.75 239.573C599.75 256.573 556.083 278.157 514.75 304.323C510.25 307.657 504 311.657 496 316.323C495.5 316.657 494.833 316.907 494 317.073C493.333 317.407 492.583 317.49 491.75 317.323C490.917 317.157 490.167 316.99 489.5 316.823C488.833 316.823 487.917 316.573 486.75 316.073C485.75 315.573 485 315.157 484.5 314.823C484 314.657 483.167 314.24 482 313.573C480.833 312.907 480.083 312.407 479.75 312.073C479.583 311.907 478.917 311.407 477.75 310.573C476.583 309.907 476 309.573 476 309.573C471.333 306.407 467.75 303.157 465.25 299.823C462.417 296.157 461.583 293.907 462.75 293.073C469.25 288.573 476 284.157 483 279.823C493 272.157 499.917 263.823 503.75 254.823C507.583 245.823 508.083 237.657 505.25 230.323C504.917 229.657 504.5 228.823 504 227.823C495.167 224.157 488 218.907 482.5 212.073C479.833 208.907 479 206.573 480 205.073C481 203.74 483.417 203.74 487.25 205.073C505.25 211.573 519.667 221.49 530.5 234.823C534 239.157 536.667 243.657 538.5 248.323C562.333 235.99 586.833 225.157 612 215.823C610.833 215.823 606.25 216.24 598.25 217.073C581.417 218.907 567.917 219.157 557.75 217.823C542.75 215.823 527.917 209.99 513.25 200.323C498.25 190.49 488.083 179.74 482.75 168.073C477.75 157.073 477.25 145.49 481.25 133.323C484.583 122.823 490.417 113.157 498.75 104.323C507.25 95.49 516.75 88.99 527.25 84.8234C544.583 77.6567 563.167 79.24 583 89.5734C586.5 78.5734 591.917 68.8234 599.25 60.3234C600.25 59.1567 602.667 59.0734 606.5 60.0734C609.833 61.0734 614.083 63.4067 619.25 67.0734C623.917 70.24 627.5 73.4067 630 76.5734C632.667 80.0734 633.5 82.4067 632.5 83.5734C622.167 95.9067 615.75 109.823 613.25 125.323C614.25 126.99 614.5 128.49 614 129.823C613.667 131.157 613 133.073 612 135.573C611.333 137.573 608.167 137.323 602.5 134.823C596.833 132.157 591.333 128.657 586 124.323C580.833 119.823 578.333 116.323 578.5 113.823C578.5 111.157 578.75 108.407 579.25 105.573C577.25 105.573 575.25 105.657 573.25 105.823C562.75 106.823 552.833 110.823 543.5 117.823C538.333 121.823 533.5 126.323 529 131.323C524.667 136.157 520.917 141.823 517.75 148.323C514.583 154.657 512.833 160.99 512.5 167.323C512.167 172.49 512.667 177.073 514 181.073C514.5 182.24 515.583 184.323 517.25 187.323C517.25 187.49 517.25 187.657 517.25 187.823C517.417 187.823 517.5 187.907 517.5 188.073C517.667 188.24 517.833 188.49 518 188.823C518.167 188.99 518.333 189.157 518.5 189.323C518.667 189.323 518.917 189.407 519.25 189.573C519.583 189.74 519.833 189.907 520 190.073C520.333 190.073 520.5 190.073 520.5 190.073C522.5 190.74 524.167 191.24 525.5 191.573C530.833 192.573 536.667 193.157 543 193.323C549.333 193.49 554.917 193.323 559.75 192.823C564.583 192.323 570.5 191.74 577.5 191.073C584.5 190.407 590.25 189.907 594.75 189.573C619.25 188.407 643.333 191.99 667 200.323C674.167 202.823 681 207.24 687.5 213.573ZM519 189.573C518.833 189.573 518.667 189.49 518.5 189.323C518.5 189.323 518.583 189.407 518.75 189.573C518.917 189.573 519 189.573 519 189.573ZM519 189.823C519.167 190.157 519.333 190.323 519.5 190.323C519.5 190.323 519.417 190.323 519.25 190.323C519.083 190.157 519 190.073 519 190.073V189.823ZM507 228.823H506.75C506.917 228.823 507 228.823 507 228.823ZM506.5 228.823H507C506.833 228.823 506.75 228.823 506.75 228.823H506.5ZM555.816 344.073C554.316 335.74 552.566 327.573 550.566 319.573C549.733 315.907 553.816 316.073 562.816 320.073C564.483 320.74 565.733 321.323 566.566 321.823C577.066 327.823 583.066 333.657 584.566 339.323C591.733 337.99 598.816 336.49 605.816 334.823C624.483 330.323 639.15 325.99 649.816 321.823C651.816 320.99 653.733 320.073 655.566 319.073C657.566 318.073 659.483 316.99 661.316 315.823C663.316 314.49 665.066 313.073 666.566 311.573C668.233 310.073 669.65 308.49 670.816 306.823C672.15 304.99 673.15 303.073 673.816 301.073C674.483 298.907 674.9 296.657 675.066 294.323C675.066 293.323 675.4 292.573 676.066 292.073C676.733 291.573 677.65 291.49 678.816 291.823C679.983 291.99 681.066 292.24 682.066 292.573C683.066 292.74 684.233 293.157 685.566 293.823C687.066 294.49 688.15 294.99 688.816 295.323C689.483 295.657 690.15 296.073 690.816 296.573C695.483 299.24 699.65 302.407 703.316 306.073C707.15 309.907 709.066 312.657 709.066 314.323C708.4 327.657 700.066 337.99 684.066 345.323C674.733 349.49 659.733 354.073 639.066 359.073C623.233 363.073 607.066 366.24 590.566 368.573C592.4 378.907 593.816 389.24 594.816 399.573C594.983 402.24 595.233 405.157 595.566 408.323C598.066 408.157 600.9 407.99 604.066 407.823C607.4 407.657 610.65 407.49 613.816 407.323C617.15 407.157 620.066 407.073 622.566 407.073C628.4 406.74 635.983 410.323 645.316 417.823C648.483 420.49 651.233 423.657 653.566 427.323C655.4 430.323 655.15 431.907 652.816 432.073C640.316 432.74 621.566 433.657 596.566 434.823C596.733 459.323 594.733 483.573 590.566 507.573C588.9 517.24 586.983 526.323 584.816 534.823C582.483 544.823 579.9 551.907 577.066 556.073C573.733 560.907 569.566 563.99 564.566 565.323C559.733 566.823 554.816 566.74 549.816 565.073C544.816 563.573 539.983 561.323 535.316 558.323C530.816 555.49 526.816 552.24 523.316 548.573C517.816 542.74 516.4 539.157 519.066 537.823C519.733 537.49 520.733 537.407 522.066 537.573C524.566 537.907 527.816 539.157 531.816 541.323C533.15 540.99 534.4 540.573 535.566 540.073C538.233 539.073 540.733 536.99 543.066 533.823C546.066 529.657 548.733 522.657 551.066 512.823C557.233 487.99 560.983 462.573 562.316 436.573C561.15 436.573 559.4 436.657 557.066 436.823C554.733 436.823 552.983 436.907 551.816 437.073C545.983 437.407 538.316 433.74 528.816 426.073C526.983 424.573 524.566 421.907 521.566 418.073C518.566 414.073 518.566 411.99 521.566 411.823L562.566 409.823C562.4 397.157 561.566 384.49 560.066 371.823C554.066 372.157 548.15 372.49 542.316 372.823C536.316 372.99 528.733 369.323 519.566 361.823C515.233 358.323 512.4 355.24 511.066 352.573C509.566 349.407 509.9 347.74 512.066 347.573C526.733 347.073 541.316 345.907 555.816 344.073ZM544.566 550.323C543.066 548.99 541.566 547.74 540.066 546.573C541.733 547.907 543.233 549.157 544.566 550.323ZM776.875 524.323C762.042 526.823 745.458 519.823 727.125 503.323C717.625 494.657 710.125 484.24 704.625 472.073C699.292 459.907 696.458 447.24 696.125 434.073C695.792 416.073 700.208 394.657 709.375 369.823C709.208 369.823 708.792 369.907 708.125 370.073C707.625 370.073 707.292 370.073 707.125 370.073C701.458 370.573 693.792 366.907 684.125 359.073C683.292 358.407 682.292 357.573 681.125 356.573C680.125 355.573 678.792 354.157 677.125 352.323C675.625 350.49 674.875 348.99 674.875 347.823C674.875 346.657 675.458 345.74 676.625 345.073C677.125 344.907 677.708 344.74 678.375 344.573C679.042 344.24 679.542 344.073 679.875 344.073C681.042 343.573 682.542 343.657 684.375 344.323C728.708 340.157 771.792 331.907 813.625 319.573C815.292 319.073 818.542 319.907 823.375 322.073C826.542 323.573 830.208 325.823 834.375 328.823C836.708 330.657 838.458 332.073 839.625 333.073C840.792 333.907 842.125 335.49 843.625 337.823C845.292 339.99 845.875 341.99 845.375 343.823C837.708 382.823 831.208 412.073 825.875 431.573C817.208 463.073 808.208 487.823 798.875 505.823C793.208 516.657 785.875 522.823 776.875 524.323ZM746.875 503.823C746.875 503.823 746.958 503.907 747.125 504.073C747.292 504.24 747.375 504.323 747.375 504.323C747.208 504.157 747.042 503.99 746.875 503.823ZM752.125 497.573C754.958 496.24 757.792 493.823 760.625 490.323C761.458 489.157 762.292 487.99 763.125 486.823C763.958 485.49 764.708 484.157 765.375 482.823C766.208 481.323 766.875 479.99 767.375 478.823C768.042 477.657 768.708 476.24 769.375 474.573C770.042 472.907 770.542 471.573 770.875 470.573C771.375 469.573 771.958 468.157 772.625 466.323C773.458 464.49 774.042 463.157 774.375 462.323C785.708 434.657 795.958 398.823 805.125 354.823C782.792 359.99 760.125 363.99 737.125 366.823C740.292 369.323 742.875 371.823 744.875 374.323C747.208 377.323 748.042 379.657 747.375 381.323C741.375 396.157 736.792 409.657 733.625 421.823C730.625 433.823 729.542 445.823 730.375 457.823C731.042 469.157 733.292 479.073 737.125 487.573C738.458 490.573 739.875 493.407 741.375 496.073C742.042 497.24 742.708 498.24 743.375 499.073C743.375 499.073 743.458 499.24 743.625 499.573C743.958 499.573 744.458 499.573 745.125 499.573C747.625 499.24 749.958 498.573 752.125 497.573ZM1046.74 337.573C1064.57 352.573 1072.49 369.157 1070.49 387.323C1069.65 395.49 1067.15 403.24 1062.99 410.573C1058.99 417.74 1053.82 424.073 1047.49 429.573C1041.32 434.907 1034.65 439.573 1027.49 443.573C1020.32 447.573 1012.82 450.823 1004.99 453.323C977.322 461.823 948.988 460.823 919.988 450.323C925.655 462.157 931.072 472.157 936.238 480.323C939.072 484.99 942.238 489.49 945.738 493.823C946.405 494.49 947.655 495.907 949.488 498.073C949.488 498.24 949.738 498.49 950.238 498.823C950.238 498.823 950.072 498.74 949.738 498.573C949.572 498.407 949.405 498.24 949.238 498.073C949.738 498.407 950.072 498.74 950.238 499.073H950.488C950.488 499.073 950.488 499.157 950.488 499.323C950.655 499.323 950.738 499.407 950.738 499.573C951.905 500.74 953.072 501.823 954.238 502.823C954.238 502.99 954.405 503.24 954.738 503.573C955.072 503.907 955.322 504.157 955.488 504.323L955.738 504.573C955.572 504.24 955.155 503.823 954.488 503.323C954.822 503.657 955.988 504.657 957.988 506.323C958.155 506.323 958.322 506.407 958.488 506.573C958.488 506.573 958.655 506.657 958.988 506.823C959.488 507.157 959.822 507.407 959.988 507.573C960.155 507.74 960.655 508.073 961.488 508.573C962.322 509.073 962.738 509.323 962.738 509.323C963.072 509.49 963.322 509.573 963.488 509.573C963.488 509.74 963.572 509.823 963.738 509.823C964.072 509.99 964.322 510.073 964.488 510.073C964.822 510.24 965.155 510.407 965.488 510.573C965.988 510.74 966.405 510.99 966.738 511.323C967.238 511.49 967.655 511.657 967.988 511.823C966.822 511.323 966.905 511.323 968.238 511.823C968.905 511.99 969.405 512.157 969.738 512.323C970.905 512.657 972.155 513.073 973.488 513.573C973.655 513.573 973.905 513.657 974.238 513.823C974.738 513.823 975.072 513.907 975.238 514.073C975.905 514.24 976.322 514.323 976.488 514.323C977.988 514.657 979.488 514.907 980.988 515.073C983.988 515.573 986.738 515.823 989.238 515.823C994.738 515.99 1000.4 515.24 1006.24 513.573C1017.74 510.407 1027.65 504.24 1035.99 495.073C1037.15 493.907 1039.57 493.907 1043.24 495.073C1046.57 496.073 1050.9 498.323 1056.24 501.823C1060.74 504.99 1064.32 508.24 1066.99 511.573C1069.65 514.907 1070.49 517.157 1069.49 518.323C1057.99 530.823 1044.15 538.157 1027.99 540.323C1011.99 542.49 995.822 539.907 979.488 532.573C963.322 525.24 948.238 515.157 934.238 502.323C929.905 498.323 925.655 493.907 921.488 489.073C924.488 503.74 928.572 517.823 933.738 531.323C937.572 535.157 939.405 537.907 939.238 539.573C939.238 540.073 939.238 540.573 939.238 541.073C939.238 541.74 939.155 542.323 938.988 542.823C938.988 543.49 938.988 544.073 938.988 544.573C938.988 545.907 938.405 546.74 937.238 547.073C936.072 547.407 934.572 547.24 932.738 546.573C931.072 546.073 929.738 545.573 928.738 545.073C927.738 544.573 926.572 544.073 925.238 543.573C921.572 541.573 917.905 539.073 914.238 536.073C909.738 532.407 906.988 529.323 905.988 526.823C899.988 513.323 895.155 499.74 891.488 486.073C884.988 461.74 882.155 437.073 882.988 412.073C883.155 404.073 883.572 396.99 884.238 390.823C872.905 402.49 863.488 415.24 855.988 429.073C855.322 430.407 852.905 430.49 848.738 429.323C845.405 428.323 841.155 425.99 835.988 422.323C831.322 419.157 827.738 415.99 825.238 412.823C822.738 409.657 821.905 407.323 822.738 405.823C838.905 375.823 862.822 352.073 894.488 334.573C923.822 318.24 954.238 310.823 985.738 312.323C1007.9 313.323 1028.24 321.74 1046.74 337.573ZM1030.24 339.823C1030.24 339.657 1030.15 339.573 1029.99 339.573C1030.15 339.573 1030.24 339.657 1030.24 339.823ZM1033.74 342.073L1032.99 341.573C1033.32 341.907 1033.57 342.073 1033.74 342.073ZM1030.24 339.573C1029.9 339.24 1029.65 339.073 1029.49 339.073C1029.49 339.073 1029.49 339.157 1029.49 339.323C1029.65 339.323 1029.82 339.407 1029.99 339.573C1029.99 339.573 1030.07 339.573 1030.24 339.573ZM984.988 424.323C991.655 421.657 998.072 418.24 1004.24 414.073C1010.4 409.907 1015.99 405.157 1020.99 399.823C1026.15 394.323 1030.15 388.073 1032.99 381.073C1035.82 374.073 1037.07 366.907 1036.74 359.573C1036.57 355.407 1035.9 351.573 1034.74 348.073C1034.4 347.073 1033.9 345.907 1033.24 344.573C1033.24 344.407 1032.99 343.99 1032.49 343.323L1031.49 341.573L1031.99 341.823C1031.65 341.49 1031.32 341.157 1030.99 340.823C1030.32 340.49 1029.9 340.323 1029.74 340.323C1028.74 339.99 1027.9 339.74 1027.24 339.573C1027.07 339.573 1026.65 339.49 1025.99 339.323C1025.82 339.323 1025.74 339.24 1025.74 339.073C1024.74 338.907 1023.74 338.74 1022.74 338.573C1018.9 337.907 1014.74 337.49 1010.24 337.323C1004.07 337.157 996.822 337.573 988.488 338.573C967.155 341.24 946.738 347.823 927.238 358.323C928.405 359.49 929.405 360.657 930.238 361.823C932.738 364.99 933.572 367.24 932.738 368.573C925.405 378.907 920.738 392.073 918.738 408.073C917.738 415.573 917.072 423.323 916.738 431.323C923.905 432.823 930.988 433.573 937.988 433.573C953.822 433.907 969.488 430.823 984.988 424.323ZM1275.96 348.073C1280.46 351.24 1284.04 354.49 1286.71 357.823C1289.04 360.823 1289.88 363.073 1289.21 364.573C1282.21 377.573 1276.38 390.907 1271.71 404.573C1269.54 411.073 1267.63 417.823 1265.96 424.823C1266.63 425.657 1267.29 426.407 1267.96 427.073C1270.63 430.407 1271.38 432.657 1270.21 433.823C1267.88 436.323 1265.21 439.24 1262.21 442.573C1260.21 454.573 1259.13 466.573 1258.96 478.573C1258.63 493.573 1259.38 506.407 1261.21 517.073C1262.04 521.073 1262.96 524.573 1263.96 527.573C1265.13 528.073 1266.29 528.657 1267.46 529.323C1272.13 531.99 1276.29 535.157 1279.96 538.823C1283.63 542.657 1285.46 545.407 1285.46 547.073C1285.46 547.407 1285.46 547.74 1285.46 548.073C1285.46 548.573 1285.46 548.99 1285.46 549.323C1285.46 549.823 1285.46 550.24 1285.46 550.573C1285.46 553.24 1282.96 553.823 1277.96 552.323C1265.96 548.49 1254.88 541.49 1244.71 531.323C1238.04 524.49 1233.29 516.99 1230.46 508.823C1228.46 502.99 1226.96 496.323 1225.96 488.823C1224.29 491.49 1223.46 492.823 1223.46 492.823C1217.13 502.323 1211.21 512.073 1205.71 522.073C1205.04 523.407 1204.13 525.323 1202.96 527.823C1201.79 530.323 1200.71 532.407 1199.71 534.073C1198.88 535.907 1197.79 537.823 1196.46 539.823C1195.13 541.823 1193.63 543.49 1191.96 544.823C1190.29 546.157 1188.54 547.24 1186.71 548.073C1181.04 550.073 1173.46 548.24 1163.96 542.573C1153.63 536.573 1146.54 529.99 1142.71 522.823C1141.71 520.99 1140.88 519.073 1140.21 517.073C1139.54 514.907 1138.96 512.573 1138.46 510.073C1138.13 507.573 1137.88 505.573 1137.71 504.073C1137.54 502.407 1137.29 499.99 1136.96 496.823C1136.79 493.49 1136.63 491.407 1136.46 490.573C1131.96 441.573 1134.96 392.407 1145.46 343.073C1145.96 340.907 1148.71 341.073 1153.71 343.573C1158.88 345.907 1162.79 347.99 1165.46 349.823C1175.29 356.49 1179.71 361.99 1178.71 366.323C1173.54 390.49 1170.38 415.157 1169.21 440.323C1168.04 461.323 1168.29 482.407 1169.96 503.573C1185.96 473.24 1205.63 445.157 1228.96 419.323C1233.79 391.49 1242.71 365.49 1255.71 341.323C1256.54 339.99 1259.04 339.99 1263.21 341.323C1266.38 342.157 1270.63 344.407 1275.96 348.073Z" fill="#292929" fill-opacity="0.6"/>
</svg>
